<mxfile host="app.diagrams.net" modified="2023-05-19T07:23:26.760Z" agent="Mozilla/5.0 (Windows NT 10.0; Win64; x64) AppleWebKit/537.36 (KHTML, like Gecko) Chrome/113.0.0.0 Safari/537.36" etag="fYxhwD9UsjCq6NwHekOt" version="21.3.2" type="github">
  <diagram id="C5RBs43oDa-KdzZeNtuy" name="Page-1">
    <mxGraphModel dx="2901" dy="2293" grid="1" gridSize="10" guides="1" tooltips="1" connect="1" arrows="1" fold="1" page="1" pageScale="1" pageWidth="827" pageHeight="1169" math="0" shadow="0">
      <root>
        <mxCell id="WIyWlLk6GJQsqaUBKTNV-0" />
        <mxCell id="WIyWlLk6GJQsqaUBKTNV-1" parent="WIyWlLk6GJQsqaUBKTNV-0" />
        <mxCell id="6flao9yT7i9pOQDsOtm--65" value="JDK" style="shape=folder;fontStyle=1;spacingTop=10;tabWidth=40;tabHeight=14;tabPosition=left;html=1;whiteSpace=wrap;align=left;" parent="WIyWlLk6GJQsqaUBKTNV-1" vertex="1">
          <mxGeometry x="-695" y="-750" width="1080" height="521" as="geometry" />
        </mxCell>
        <mxCell id="zkfFHV4jXpPFQw0GAbJ--0" value="«interface»&#xa;EventLoop" style="swimlane;fontStyle=2;align=center;verticalAlign=top;childLayout=stackLayout;horizontal=1;startSize=40;horizontalStack=0;resizeParent=1;resizeLast=0;collapsible=1;marginBottom=0;rounded=0;shadow=0;strokeWidth=1;" parent="WIyWlLk6GJQsqaUBKTNV-1" vertex="1">
          <mxGeometry x="380" y="170" width="230" height="66" as="geometry">
            <mxRectangle x="230" y="140" width="160" height="26" as="alternateBounds" />
          </mxGeometry>
        </mxCell>
        <mxCell id="6flao9yT7i9pOQDsOtm--82" value="&lt;div style=&quot;font-size: 11px;&quot;&gt;&lt;div style=&quot;font-size: 11px;&quot;&gt;&lt;span style=&quot;background-color: rgb(255, 255, 255); font-size: 11px;&quot;&gt;EventLoopGroup parent()&lt;/span&gt;&lt;/div&gt;&lt;/div&gt;" style="text;strokeColor=none;fillColor=none;align=left;verticalAlign=top;spacingLeft=4;spacingRight=4;overflow=hidden;rotatable=0;points=[[0,0.5],[1,0.5]];portConstraint=eastwest;whiteSpace=wrap;html=1;fontFamily=Helvetica;fontSize=11;" parent="zkfFHV4jXpPFQw0GAbJ--0" vertex="1">
          <mxGeometry y="40" width="230" height="26" as="geometry" />
        </mxCell>
        <mxCell id="zkfFHV4jXpPFQw0GAbJ--6" value="SingleThreadEventLoop" style="swimlane;fontStyle=0;align=center;verticalAlign=top;childLayout=stackLayout;horizontal=1;startSize=26;horizontalStack=0;resizeParent=1;resizeLast=0;collapsible=1;marginBottom=0;rounded=0;shadow=0;strokeWidth=1;" parent="WIyWlLk6GJQsqaUBKTNV-1" vertex="1">
          <mxGeometry x="289" y="570" width="250" height="112" as="geometry">
            <mxRectangle x="130" y="380" width="160" height="26" as="alternateBounds" />
          </mxGeometry>
        </mxCell>
        <mxCell id="zkfFHV4jXpPFQw0GAbJ--9" value="" style="line;html=1;strokeWidth=1;align=left;verticalAlign=middle;spacingTop=-1;spacingLeft=3;spacingRight=3;rotatable=0;labelPosition=right;points=[];portConstraint=eastwest;" parent="zkfFHV4jXpPFQw0GAbJ--6" vertex="1">
          <mxGeometry y="26" width="250" height="8" as="geometry" />
        </mxCell>
        <mxCell id="6flao9yT7i9pOQDsOtm--83" value="&lt;div style=&quot;font-size: 11px;&quot;&gt;&lt;div style=&quot;font-size: 11px;&quot;&gt;&lt;span style=&quot;background-color: rgb(255, 255, 255); font-size: 11px;&quot;&gt;EventLoopGroup parent()&lt;/span&gt;&lt;/div&gt;&lt;/div&gt;" style="text;strokeColor=none;fillColor=none;align=left;verticalAlign=top;spacingLeft=4;spacingRight=4;overflow=hidden;rotatable=0;points=[[0,0.5],[1,0.5]];portConstraint=eastwest;whiteSpace=wrap;html=1;fontFamily=Helvetica;fontSize=11;" parent="zkfFHV4jXpPFQw0GAbJ--6" vertex="1">
          <mxGeometry y="34" width="250" height="26" as="geometry" />
        </mxCell>
        <mxCell id="6flao9yT7i9pOQDsOtm--80" value="&lt;font style=&quot;font-size: 11px;&quot;&gt;register(Channel channel)&lt;/font&gt;" style="text;strokeColor=none;fillColor=none;align=left;verticalAlign=top;spacingLeft=4;spacingRight=4;overflow=hidden;rotatable=0;points=[[0,0.5],[1,0.5]];portConstraint=eastwest;whiteSpace=wrap;html=1;fontFamily=Helvetica;fontSize=11;" parent="zkfFHV4jXpPFQw0GAbJ--6" vertex="1">
          <mxGeometry y="60" width="250" height="26" as="geometry" />
        </mxCell>
        <mxCell id="6flao9yT7i9pOQDsOtm--81" value="&lt;div style=&quot;font-size: 11px;&quot;&gt;&lt;span style=&quot;background-color: rgb(255, 255, 255); font-size: 11px;&quot;&gt;EventLoop next();&lt;/span&gt;&lt;/div&gt;" style="text;strokeColor=none;fillColor=none;align=left;verticalAlign=top;spacingLeft=4;spacingRight=4;overflow=hidden;rotatable=0;points=[[0,0.5],[1,0.5]];portConstraint=eastwest;whiteSpace=wrap;html=1;fontFamily=Helvetica;fontSize=11;" parent="zkfFHV4jXpPFQw0GAbJ--6" vertex="1">
          <mxGeometry y="86" width="250" height="26" as="geometry" />
        </mxCell>
        <mxCell id="6flao9yT7i9pOQDsOtm--0" value="NioEventLoop" style="swimlane;fontStyle=1;align=center;verticalAlign=top;childLayout=stackLayout;horizontal=1;startSize=26;horizontalStack=0;resizeParent=1;resizeParentMax=0;resizeLast=0;collapsible=1;marginBottom=0;whiteSpace=wrap;html=1;rotation=0;" parent="WIyWlLk6GJQsqaUBKTNV-1" vertex="1">
          <mxGeometry x="230" y="770" width="250" height="150" as="geometry">
            <mxRectangle x="210" y="600" width="120" height="30" as="alternateBounds" />
          </mxGeometry>
        </mxCell>
        <mxCell id="6flao9yT7i9pOQDsOtm--1" value="selector" style="text;strokeColor=none;fillColor=none;align=left;verticalAlign=top;spacingLeft=4;spacingRight=4;overflow=hidden;rotatable=0;points=[[0,0.5],[1,0.5]];portConstraint=eastwest;whiteSpace=wrap;html=1;rotation=0;" parent="6flao9yT7i9pOQDsOtm--0" vertex="1">
          <mxGeometry y="26" width="250" height="26" as="geometry" />
        </mxCell>
        <mxCell id="6flao9yT7i9pOQDsOtm--2" value="" style="line;strokeWidth=1;fillColor=none;align=left;verticalAlign=middle;spacingTop=-1;spacingLeft=3;spacingRight=3;rotatable=0;labelPosition=right;points=[];portConstraint=eastwest;strokeColor=inherit;rotation=0;" parent="6flao9yT7i9pOQDsOtm--0" vertex="1">
          <mxGeometry y="52" width="250" height="8" as="geometry" />
        </mxCell>
        <mxCell id="6flao9yT7i9pOQDsOtm--3" value="register(channel, interestedOps, task)&lt;br&gt;" style="text;strokeColor=none;fillColor=none;align=left;verticalAlign=top;spacingLeft=4;spacingRight=4;overflow=hidden;rotatable=0;points=[[0,0.5],[1,0.5]];portConstraint=eastwest;whiteSpace=wrap;html=1;rotation=0;" parent="6flao9yT7i9pOQDsOtm--0" vertex="1">
          <mxGeometry y="60" width="250" height="30" as="geometry" />
        </mxCell>
        <mxCell id="6flao9yT7i9pOQDsOtm--4" value="rebuildSelector()" style="text;strokeColor=none;fillColor=none;align=left;verticalAlign=top;spacingLeft=4;spacingRight=4;overflow=hidden;rotatable=0;points=[[0,0.5],[1,0.5]];portConstraint=eastwest;whiteSpace=wrap;html=1;rotation=0;" parent="6flao9yT7i9pOQDsOtm--0" vertex="1">
          <mxGeometry y="90" width="250" height="30" as="geometry" />
        </mxCell>
        <mxCell id="6flao9yT7i9pOQDsOtm--84" value="&lt;div style=&quot;font-size: 9.8pt;&quot;&gt;&lt;span style=&quot;background-color: rgb(255, 255, 255);&quot;&gt;int pendingTasks()&lt;/span&gt;&lt;/div&gt;" style="text;strokeColor=none;fillColor=none;align=left;verticalAlign=top;spacingLeft=4;spacingRight=4;overflow=hidden;rotatable=0;points=[[0,0.5],[1,0.5]];portConstraint=eastwest;whiteSpace=wrap;html=1;rotation=0;fontFamily=Helvetica;fontColor=#000000;" parent="6flao9yT7i9pOQDsOtm--0" vertex="1">
          <mxGeometry y="120" width="250" height="30" as="geometry" />
        </mxCell>
        <mxCell id="6flao9yT7i9pOQDsOtm--5" value="SingleThreadEventExecutor" style="swimlane;fontStyle=2;align=center;verticalAlign=top;childLayout=stackLayout;horizontal=1;startSize=26;horizontalStack=0;resizeParent=1;resizeLast=0;collapsible=1;marginBottom=0;rounded=0;shadow=0;strokeWidth=1;" parent="WIyWlLk6GJQsqaUBKTNV-1" vertex="1">
          <mxGeometry x="-210" y="380" width="210" height="190" as="geometry">
            <mxRectangle x="230" y="140" width="160" height="26" as="alternateBounds" />
          </mxGeometry>
        </mxCell>
        <mxCell id="6flao9yT7i9pOQDsOtm--14" value="EventExecutorGroup parent" style="text;align=left;verticalAlign=top;spacingLeft=4;spacingRight=4;overflow=hidden;rotatable=0;points=[[0,0.5],[1,0.5]];portConstraint=eastwest;" parent="6flao9yT7i9pOQDsOtm--5" vertex="1">
          <mxGeometry y="26" width="210" height="26" as="geometry" />
        </mxCell>
        <mxCell id="6flao9yT7i9pOQDsOtm--6" value="Queue&lt;Runnable&gt; taskQueue" style="text;align=left;verticalAlign=top;spacingLeft=4;spacingRight=4;overflow=hidden;rotatable=0;points=[[0,0.5],[1,0.5]];portConstraint=eastwest;" parent="6flao9yT7i9pOQDsOtm--5" vertex="1">
          <mxGeometry y="52" width="210" height="26" as="geometry" />
        </mxCell>
        <mxCell id="6flao9yT7i9pOQDsOtm--15" value="Thread thread" style="text;align=left;verticalAlign=top;spacingLeft=4;spacingRight=4;overflow=hidden;rotatable=0;points=[[0,0.5],[1,0.5]];portConstraint=eastwest;" parent="6flao9yT7i9pOQDsOtm--5" vertex="1">
          <mxGeometry y="78" width="210" height="26" as="geometry" />
        </mxCell>
        <mxCell id="6flao9yT7i9pOQDsOtm--7" value="" style="line;html=1;strokeWidth=1;align=left;verticalAlign=middle;spacingTop=-1;spacingLeft=3;spacingRight=3;rotatable=0;labelPosition=right;points=[];portConstraint=eastwest;" parent="6flao9yT7i9pOQDsOtm--5" vertex="1">
          <mxGeometry y="104" width="210" height="8" as="geometry" />
        </mxCell>
        <mxCell id="6flao9yT7i9pOQDsOtm--8" value="addShutDownHook(Runnable task)" style="text;align=left;verticalAlign=top;spacingLeft=4;spacingRight=4;overflow=hidden;rotatable=0;points=[[0,0.5],[1,0.5]];portConstraint=eastwest;" parent="6flao9yT7i9pOQDsOtm--5" vertex="1">
          <mxGeometry y="112" width="210" height="26" as="geometry" />
        </mxCell>
        <mxCell id="6flao9yT7i9pOQDsOtm--78" value="void execute(Runnable task)" style="text;align=left;verticalAlign=top;spacingLeft=4;spacingRight=4;overflow=hidden;rotatable=0;points=[[0,0.5],[1,0.5]];portConstraint=eastwest;" parent="6flao9yT7i9pOQDsOtm--5" vertex="1">
          <mxGeometry y="138" width="210" height="26" as="geometry" />
        </mxCell>
        <mxCell id="6flao9yT7i9pOQDsOtm--79" value="boolean inEventLoop(Thread thread)" style="text;align=left;verticalAlign=top;spacingLeft=4;spacingRight=4;overflow=hidden;rotatable=0;points=[[0,0.5],[1,0.5]];portConstraint=eastwest;" parent="6flao9yT7i9pOQDsOtm--5" vertex="1">
          <mxGeometry y="164" width="210" height="26" as="geometry" />
        </mxCell>
        <mxCell id="6flao9yT7i9pOQDsOtm--12" value="Extends" style="endArrow=block;endSize=16;endFill=0;html=1;rounded=0;" parent="WIyWlLk6GJQsqaUBKTNV-1" source="zkfFHV4jXpPFQw0GAbJ--6" target="6flao9yT7i9pOQDsOtm--5" edge="1">
          <mxGeometry x="0.0114" y="10" width="160" relative="1" as="geometry">
            <mxPoint x="320" y="750" as="sourcePoint" />
            <mxPoint x="480" y="750" as="targetPoint" />
            <Array as="points" />
            <mxPoint as="offset" />
          </mxGeometry>
        </mxCell>
        <mxCell id="6flao9yT7i9pOQDsOtm--13" value="" style="endArrow=block;dashed=1;endFill=0;endSize=12;html=1;rounded=0;entryX=0.5;entryY=1;entryDx=0;entryDy=0;exitX=0.5;exitY=0;exitDx=0;exitDy=0;" parent="WIyWlLk6GJQsqaUBKTNV-1" source="zkfFHV4jXpPFQw0GAbJ--6" target="zkfFHV4jXpPFQw0GAbJ--0" edge="1">
          <mxGeometry width="160" relative="1" as="geometry">
            <mxPoint x="330" y="570" as="sourcePoint" />
            <mxPoint x="490" y="570" as="targetPoint" />
          </mxGeometry>
        </mxCell>
        <mxCell id="6flao9yT7i9pOQDsOtm--16" value="«interface»&#xa;EventLoopGroup" style="swimlane;fontStyle=2;align=center;verticalAlign=top;childLayout=stackLayout;horizontal=1;startSize=50;horizontalStack=0;resizeParent=1;resizeLast=0;collapsible=1;marginBottom=0;rounded=0;shadow=0;strokeWidth=1;" parent="WIyWlLk6GJQsqaUBKTNV-1" vertex="1">
          <mxGeometry x="254" y="-50" width="160" height="102" as="geometry">
            <mxRectangle x="230" y="140" width="160" height="26" as="alternateBounds" />
          </mxGeometry>
        </mxCell>
        <mxCell id="6flao9yT7i9pOQDsOtm--71" value="&lt;font style=&quot;font-size: 11px;&quot;&gt;register(Channel channel)&lt;/font&gt;" style="text;strokeColor=none;fillColor=none;align=left;verticalAlign=top;spacingLeft=4;spacingRight=4;overflow=hidden;rotatable=0;points=[[0,0.5],[1,0.5]];portConstraint=eastwest;whiteSpace=wrap;html=1;fontFamily=Helvetica;fontSize=11;" parent="6flao9yT7i9pOQDsOtm--16" vertex="1">
          <mxGeometry y="50" width="160" height="26" as="geometry" />
        </mxCell>
        <mxCell id="6flao9yT7i9pOQDsOtm--17" value="&lt;div style=&quot;font-size: 11px;&quot;&gt;&lt;span style=&quot;background-color: rgb(255, 255, 255); font-size: 11px;&quot;&gt;EventLoop next();&lt;/span&gt;&lt;/div&gt;" style="text;strokeColor=none;fillColor=none;align=left;verticalAlign=top;spacingLeft=4;spacingRight=4;overflow=hidden;rotatable=0;points=[[0,0.5],[1,0.5]];portConstraint=eastwest;whiteSpace=wrap;html=1;fontFamily=Helvetica;fontSize=11;" parent="6flao9yT7i9pOQDsOtm--16" vertex="1">
          <mxGeometry y="76" width="160" height="26" as="geometry" />
        </mxCell>
        <mxCell id="6flao9yT7i9pOQDsOtm--18" value="Extends" style="endArrow=block;endSize=16;endFill=0;html=1;rounded=0;entryX=0.5;entryY=1;entryDx=0;entryDy=0;" parent="WIyWlLk6GJQsqaUBKTNV-1" source="zkfFHV4jXpPFQw0GAbJ--0" target="6flao9yT7i9pOQDsOtm--16" edge="1">
          <mxGeometry x="0.0114" y="10" width="160" relative="1" as="geometry">
            <mxPoint x="220" y="413" as="sourcePoint" />
            <mxPoint x="55" y="358" as="targetPoint" />
            <Array as="points" />
            <mxPoint as="offset" />
          </mxGeometry>
        </mxCell>
        <mxCell id="6flao9yT7i9pOQDsOtm--19" value="«interface»&#xa;EventExecutorGroup" style="swimlane;fontStyle=2;align=center;verticalAlign=top;childLayout=stackLayout;horizontal=1;startSize=50;horizontalStack=0;resizeParent=1;resizeLast=0;collapsible=1;marginBottom=0;rounded=0;shadow=0;strokeWidth=1;" parent="WIyWlLk6GJQsqaUBKTNV-1" vertex="1">
          <mxGeometry x="-110" y="-200" width="270" height="102" as="geometry">
            <mxRectangle x="230" y="140" width="160" height="26" as="alternateBounds" />
          </mxGeometry>
        </mxCell>
        <mxCell id="6flao9yT7i9pOQDsOtm--20" value="&lt;div style=&quot;font-family: &amp;quot;JetBrains Mono&amp;quot;, monospace; font-size: 9.8pt;&quot;&gt;&lt;span style=&quot;background-color: rgb(255, 255, 255);&quot;&gt;EventExecutor next();&lt;/span&gt;&lt;/div&gt;" style="text;strokeColor=none;fillColor=none;align=left;verticalAlign=top;spacingLeft=4;spacingRight=4;overflow=hidden;rotatable=0;points=[[0,0.5],[1,0.5]];portConstraint=eastwest;whiteSpace=wrap;html=1;" parent="6flao9yT7i9pOQDsOtm--19" vertex="1">
          <mxGeometry y="50" width="270" height="26" as="geometry" />
        </mxCell>
        <mxCell id="6flao9yT7i9pOQDsOtm--21" value="&lt;div style=&quot;font-family: &amp;quot;JetBrains Mono&amp;quot;, monospace; font-size: 9.8pt;&quot;&gt;&lt;div style=&quot;font-size: 9.8pt;&quot;&gt;&lt;span style=&quot;background-color: rgb(255, 255, 255);&quot;&gt;Future&amp;lt;?&amp;gt; shutdownGracefully();&lt;/span&gt;&lt;/div&gt;&lt;/div&gt;" style="text;strokeColor=none;fillColor=none;align=left;verticalAlign=top;spacingLeft=4;spacingRight=4;overflow=hidden;rotatable=0;points=[[0,0.5],[1,0.5]];portConstraint=eastwest;whiteSpace=wrap;html=1;" parent="6flao9yT7i9pOQDsOtm--19" vertex="1">
          <mxGeometry y="76" width="270" height="26" as="geometry" />
        </mxCell>
        <mxCell id="6flao9yT7i9pOQDsOtm--22" value="Extends" style="endArrow=block;endSize=16;endFill=0;html=1;rounded=0;" parent="WIyWlLk6GJQsqaUBKTNV-1" source="6flao9yT7i9pOQDsOtm--16" target="6flao9yT7i9pOQDsOtm--21" edge="1">
          <mxGeometry x="0.0114" y="10" width="160" relative="1" as="geometry">
            <mxPoint x="277" y="220" as="sourcePoint" />
            <mxPoint x="230" y="130" as="targetPoint" />
            <Array as="points" />
            <mxPoint as="offset" />
          </mxGeometry>
        </mxCell>
        <mxCell id="6flao9yT7i9pOQDsOtm--23" value="«interface»&#xa;ScheduledExecutorService" style="swimlane;fontStyle=2;align=center;verticalAlign=top;childLayout=stackLayout;horizontal=1;startSize=40;horizontalStack=0;resizeParent=1;resizeLast=0;collapsible=1;marginBottom=0;rounded=0;shadow=0;strokeWidth=1;" parent="WIyWlLk6GJQsqaUBKTNV-1" vertex="1">
          <mxGeometry x="-80" y="-370" width="210" height="90" as="geometry">
            <mxRectangle x="230" y="140" width="160" height="26" as="alternateBounds" />
          </mxGeometry>
        </mxCell>
        <mxCell id="6flao9yT7i9pOQDsOtm--28" value="schedule(...)" style="text;align=left;verticalAlign=top;spacingLeft=4;spacingRight=4;overflow=hidden;rotatable=0;points=[[0,0.5],[1,0.5]];portConstraint=eastwest;" parent="6flao9yT7i9pOQDsOtm--23" vertex="1">
          <mxGeometry y="40" width="210" height="26" as="geometry" />
        </mxCell>
        <mxCell id="6flao9yT7i9pOQDsOtm--29" value="Extends" style="endArrow=block;endSize=16;endFill=0;html=1;rounded=0;exitX=0.5;exitY=0;exitDx=0;exitDy=0;" parent="WIyWlLk6GJQsqaUBKTNV-1" source="6flao9yT7i9pOQDsOtm--19" target="6flao9yT7i9pOQDsOtm--23" edge="1">
          <mxGeometry x="0.0114" y="10" width="160" relative="1" as="geometry">
            <mxPoint x="199" y="60" as="sourcePoint" />
            <mxPoint x="107" y="-42" as="targetPoint" />
            <Array as="points" />
            <mxPoint as="offset" />
          </mxGeometry>
        </mxCell>
        <mxCell id="6flao9yT7i9pOQDsOtm--30" value="«interface»&#xa;EventExecutor" style="swimlane;fontStyle=2;align=center;verticalAlign=top;childLayout=stackLayout;horizontal=1;startSize=40;horizontalStack=0;resizeParent=1;resizeLast=0;collapsible=1;marginBottom=0;rounded=0;shadow=0;strokeWidth=1;" parent="WIyWlLk6GJQsqaUBKTNV-1" vertex="1">
          <mxGeometry x="-260" y="-40" width="210" height="144" as="geometry">
            <mxRectangle x="230" y="140" width="160" height="26" as="alternateBounds" />
          </mxGeometry>
        </mxCell>
        <mxCell id="6flao9yT7i9pOQDsOtm--31" value="boolean inEventLoop();" style="text;align=left;verticalAlign=top;spacingLeft=4;spacingRight=4;overflow=hidden;rotatable=0;points=[[0,0.5],[1,0.5]];portConstraint=eastwest;" parent="6flao9yT7i9pOQDsOtm--30" vertex="1">
          <mxGeometry y="40" width="210" height="26" as="geometry" />
        </mxCell>
        <mxCell id="6flao9yT7i9pOQDsOtm--33" value="boolean inEventLoop(Thread thread);" style="text;align=left;verticalAlign=top;spacingLeft=4;spacingRight=4;overflow=hidden;rotatable=0;points=[[0,0.5],[1,0.5]];portConstraint=eastwest;" parent="6flao9yT7i9pOQDsOtm--30" vertex="1">
          <mxGeometry y="66" width="210" height="26" as="geometry" />
        </mxCell>
        <mxCell id="6flao9yT7i9pOQDsOtm--34" value="Promise&lt;V&gt; newPromise();" style="text;align=left;verticalAlign=top;spacingLeft=4;spacingRight=4;overflow=hidden;rotatable=0;points=[[0,0.5],[1,0.5]];portConstraint=eastwest;" parent="6flao9yT7i9pOQDsOtm--30" vertex="1">
          <mxGeometry y="92" width="210" height="26" as="geometry" />
        </mxCell>
        <mxCell id="6flao9yT7i9pOQDsOtm--70" value="EventExecutor next();" style="text;align=left;verticalAlign=top;spacingLeft=4;spacingRight=4;overflow=hidden;rotatable=0;points=[[0,0.5],[1,0.5]];portConstraint=eastwest;" parent="6flao9yT7i9pOQDsOtm--30" vertex="1">
          <mxGeometry y="118" width="210" height="26" as="geometry" />
        </mxCell>
        <mxCell id="6flao9yT7i9pOQDsOtm--32" value="Extends" style="endArrow=block;endSize=16;endFill=0;html=1;rounded=0;entryX=0.493;entryY=0.962;entryDx=0;entryDy=0;entryPerimeter=0;exitX=0.5;exitY=0;exitDx=0;exitDy=0;" parent="WIyWlLk6GJQsqaUBKTNV-1" source="6flao9yT7i9pOQDsOtm--30" target="6flao9yT7i9pOQDsOtm--21" edge="1">
          <mxGeometry x="0.0114" y="10" width="160" relative="1" as="geometry">
            <mxPoint x="199" y="60" as="sourcePoint" />
            <mxPoint x="107" y="-42" as="targetPoint" />
            <Array as="points" />
            <mxPoint as="offset" />
          </mxGeometry>
        </mxCell>
        <mxCell id="6flao9yT7i9pOQDsOtm--35" value="" style="endArrow=block;dashed=1;endFill=0;endSize=12;html=1;rounded=0;exitX=0.5;exitY=0;exitDx=0;exitDy=0;" parent="WIyWlLk6GJQsqaUBKTNV-1" source="6flao9yT7i9pOQDsOtm--5" target="6flao9yT7i9pOQDsOtm--30" edge="1">
          <mxGeometry width="160" relative="1" as="geometry">
            <mxPoint x="300" y="370" as="sourcePoint" />
            <mxPoint x="290" y="270" as="targetPoint" />
          </mxGeometry>
        </mxCell>
        <mxCell id="6flao9yT7i9pOQDsOtm--36" value="AbstractScheduledEventExecutor" style="swimlane;fontStyle=2;align=center;verticalAlign=top;childLayout=stackLayout;horizontal=1;startSize=26;horizontalStack=0;resizeParent=1;resizeLast=0;collapsible=1;marginBottom=0;rounded=0;shadow=0;strokeWidth=1;" parent="WIyWlLk6GJQsqaUBKTNV-1" vertex="1">
          <mxGeometry x="-570" y="300" width="280" height="120" as="geometry">
            <mxRectangle x="230" y="140" width="160" height="26" as="alternateBounds" />
          </mxGeometry>
        </mxCell>
        <mxCell id="6flao9yT7i9pOQDsOtm--37" value="Queue&lt;ScheduledFutureTask&lt;?&gt;&gt; scheduledTaskQueue;" style="text;align=left;verticalAlign=top;spacingLeft=4;spacingRight=4;overflow=hidden;rotatable=0;points=[[0,0.5],[1,0.5]];portConstraint=eastwest;" parent="6flao9yT7i9pOQDsOtm--36" vertex="1">
          <mxGeometry y="26" width="280" height="26" as="geometry" />
        </mxCell>
        <mxCell id="6flao9yT7i9pOQDsOtm--40" value="" style="line;html=1;strokeWidth=1;align=left;verticalAlign=middle;spacingTop=-1;spacingLeft=3;spacingRight=3;rotatable=0;labelPosition=right;points=[];portConstraint=eastwest;" parent="6flao9yT7i9pOQDsOtm--36" vertex="1">
          <mxGeometry y="52" width="280" height="8" as="geometry" />
        </mxCell>
        <mxCell id="6flao9yT7i9pOQDsOtm--41" value="ScheduledFuture&lt;V&gt; schedule(task)" style="text;align=left;verticalAlign=top;spacingLeft=4;spacingRight=4;overflow=hidden;rotatable=0;points=[[0,0.5],[1,0.5]];portConstraint=eastwest;" parent="6flao9yT7i9pOQDsOtm--36" vertex="1">
          <mxGeometry y="60" width="280" height="26" as="geometry" />
        </mxCell>
        <mxCell id="6flao9yT7i9pOQDsOtm--43" value="removeScheduled(task)" style="text;align=left;verticalAlign=top;spacingLeft=4;spacingRight=4;overflow=hidden;rotatable=0;points=[[0,0.5],[1,0.5]];portConstraint=eastwest;" parent="6flao9yT7i9pOQDsOtm--36" vertex="1">
          <mxGeometry y="86" width="280" height="26" as="geometry" />
        </mxCell>
        <mxCell id="6flao9yT7i9pOQDsOtm--44" value="Extends" style="endArrow=block;endSize=16;endFill=0;html=1;rounded=0;" parent="WIyWlLk6GJQsqaUBKTNV-1" source="6flao9yT7i9pOQDsOtm--5" target="6flao9yT7i9pOQDsOtm--36" edge="1">
          <mxGeometry x="0.0114" y="10" width="160" relative="1" as="geometry">
            <mxPoint x="30" y="412" as="sourcePoint" />
            <mxPoint x="-450" y="280" as="targetPoint" />
            <Array as="points" />
            <mxPoint as="offset" />
          </mxGeometry>
        </mxCell>
        <mxCell id="6flao9yT7i9pOQDsOtm--45" value="AbstractEventExecutor" style="swimlane;fontStyle=2;align=center;verticalAlign=top;childLayout=stackLayout;horizontal=1;startSize=26;horizontalStack=0;resizeParent=1;resizeLast=0;collapsible=1;marginBottom=0;rounded=0;shadow=0;strokeWidth=1;" parent="WIyWlLk6GJQsqaUBKTNV-1" vertex="1">
          <mxGeometry x="-580" y="110" width="280" height="120" as="geometry">
            <mxRectangle x="230" y="140" width="160" height="26" as="alternateBounds" />
          </mxGeometry>
        </mxCell>
        <mxCell id="6flao9yT7i9pOQDsOtm--46" value="Set&lt;EventExecutor&gt; executorSet" style="text;align=left;verticalAlign=top;spacingLeft=4;spacingRight=4;overflow=hidden;rotatable=0;points=[[0,0.5],[1,0.5]];portConstraint=eastwest;" parent="6flao9yT7i9pOQDsOtm--45" vertex="1">
          <mxGeometry y="26" width="280" height="26" as="geometry" />
        </mxCell>
        <mxCell id="6flao9yT7i9pOQDsOtm--47" value="" style="line;html=1;strokeWidth=1;align=left;verticalAlign=middle;spacingTop=-1;spacingLeft=3;spacingRight=3;rotatable=0;labelPosition=right;points=[];portConstraint=eastwest;" parent="6flao9yT7i9pOQDsOtm--45" vertex="1">
          <mxGeometry y="52" width="280" height="8" as="geometry" />
        </mxCell>
        <mxCell id="6flao9yT7i9pOQDsOtm--48" value="ScheduledFuture&lt;V&gt; schedule(task)" style="text;align=left;verticalAlign=top;spacingLeft=4;spacingRight=4;overflow=hidden;rotatable=0;points=[[0,0.5],[1,0.5]];portConstraint=eastwest;" parent="6flao9yT7i9pOQDsOtm--45" vertex="1">
          <mxGeometry y="60" width="280" height="26" as="geometry" />
        </mxCell>
        <mxCell id="6flao9yT7i9pOQDsOtm--49" value="removeScheduled(task)" style="text;align=left;verticalAlign=top;spacingLeft=4;spacingRight=4;overflow=hidden;rotatable=0;points=[[0,0.5],[1,0.5]];portConstraint=eastwest;" parent="6flao9yT7i9pOQDsOtm--45" vertex="1">
          <mxGeometry y="86" width="280" height="26" as="geometry" />
        </mxCell>
        <mxCell id="6flao9yT7i9pOQDsOtm--50" value="Extends" style="endArrow=block;endSize=16;endFill=0;html=1;rounded=0;" parent="WIyWlLk6GJQsqaUBKTNV-1" source="6flao9yT7i9pOQDsOtm--36" target="6flao9yT7i9pOQDsOtm--45" edge="1">
          <mxGeometry x="-0.0014" y="10" width="160" relative="1" as="geometry">
            <mxPoint x="-245" y="290" as="sourcePoint" />
            <mxPoint x="-350" y="200" as="targetPoint" />
            <Array as="points" />
            <mxPoint as="offset" />
          </mxGeometry>
        </mxCell>
        <mxCell id="6flao9yT7i9pOQDsOtm--51" value="AbstractExecutorService" style="swimlane;fontStyle=2;align=center;verticalAlign=top;childLayout=stackLayout;horizontal=1;startSize=26;horizontalStack=0;resizeParent=1;resizeLast=0;collapsible=1;marginBottom=0;rounded=0;shadow=0;strokeWidth=1;" parent="WIyWlLk6GJQsqaUBKTNV-1" vertex="1">
          <mxGeometry x="-553" y="-385" width="280" height="120" as="geometry">
            <mxRectangle x="230" y="140" width="160" height="26" as="alternateBounds" />
          </mxGeometry>
        </mxCell>
        <mxCell id="6flao9yT7i9pOQDsOtm--52" value="Set&lt;EventExecutor&gt; executorSet" style="text;align=left;verticalAlign=top;spacingLeft=4;spacingRight=4;overflow=hidden;rotatable=0;points=[[0,0.5],[1,0.5]];portConstraint=eastwest;" parent="6flao9yT7i9pOQDsOtm--51" vertex="1">
          <mxGeometry y="26" width="280" height="26" as="geometry" />
        </mxCell>
        <mxCell id="6flao9yT7i9pOQDsOtm--53" value="" style="line;html=1;strokeWidth=1;align=left;verticalAlign=middle;spacingTop=-1;spacingLeft=3;spacingRight=3;rotatable=0;labelPosition=right;points=[];portConstraint=eastwest;" parent="6flao9yT7i9pOQDsOtm--51" vertex="1">
          <mxGeometry y="52" width="280" height="8" as="geometry" />
        </mxCell>
        <mxCell id="6flao9yT7i9pOQDsOtm--54" value="ScheduledFuture&lt;V&gt; schedule(task)" style="text;align=left;verticalAlign=top;spacingLeft=4;spacingRight=4;overflow=hidden;rotatable=0;points=[[0,0.5],[1,0.5]];portConstraint=eastwest;" parent="6flao9yT7i9pOQDsOtm--51" vertex="1">
          <mxGeometry y="60" width="280" height="26" as="geometry" />
        </mxCell>
        <mxCell id="6flao9yT7i9pOQDsOtm--55" value="removeScheduled(task)" style="text;align=left;verticalAlign=top;spacingLeft=4;spacingRight=4;overflow=hidden;rotatable=0;points=[[0,0.5],[1,0.5]];portConstraint=eastwest;" parent="6flao9yT7i9pOQDsOtm--51" vertex="1">
          <mxGeometry y="86" width="280" height="26" as="geometry" />
        </mxCell>
        <mxCell id="6flao9yT7i9pOQDsOtm--56" value="«interface»&#xa;ExecutorService" style="swimlane;fontStyle=2;align=center;verticalAlign=top;childLayout=stackLayout;horizontal=1;startSize=40;horizontalStack=0;resizeParent=1;resizeLast=0;collapsible=1;marginBottom=0;rounded=0;shadow=0;strokeWidth=1;" parent="WIyWlLk6GJQsqaUBKTNV-1" vertex="1">
          <mxGeometry x="-260" y="-560" width="210" height="92" as="geometry">
            <mxRectangle x="230" y="140" width="160" height="26" as="alternateBounds" />
          </mxGeometry>
        </mxCell>
        <mxCell id="6flao9yT7i9pOQDsOtm--57" value="submit()" style="text;align=left;verticalAlign=top;spacingLeft=4;spacingRight=4;overflow=hidden;rotatable=0;points=[[0,0.5],[1,0.5]];portConstraint=eastwest;" parent="6flao9yT7i9pOQDsOtm--56" vertex="1">
          <mxGeometry y="40" width="210" height="26" as="geometry" />
        </mxCell>
        <mxCell id="6flao9yT7i9pOQDsOtm--58" value="shutdown()" style="text;align=left;verticalAlign=top;spacingLeft=4;spacingRight=4;overflow=hidden;rotatable=0;points=[[0,0.5],[1,0.5]];portConstraint=eastwest;" parent="6flao9yT7i9pOQDsOtm--56" vertex="1">
          <mxGeometry y="66" width="210" height="26" as="geometry" />
        </mxCell>
        <mxCell id="6flao9yT7i9pOQDsOtm--59" value="«interface»&#xa;Executor" style="swimlane;fontStyle=2;align=center;verticalAlign=top;childLayout=stackLayout;horizontal=1;startSize=40;horizontalStack=0;resizeParent=1;resizeLast=0;collapsible=1;marginBottom=0;rounded=0;shadow=0;strokeWidth=1;" parent="WIyWlLk6GJQsqaUBKTNV-1" vertex="1">
          <mxGeometry x="-260" y="-710" width="210" height="92" as="geometry">
            <mxRectangle x="230" y="140" width="160" height="26" as="alternateBounds" />
          </mxGeometry>
        </mxCell>
        <mxCell id="6flao9yT7i9pOQDsOtm--60" value="void execute(Runnable command);" style="text;align=left;verticalAlign=top;spacingLeft=4;spacingRight=4;overflow=hidden;rotatable=0;points=[[0,0.5],[1,0.5]];portConstraint=eastwest;" parent="6flao9yT7i9pOQDsOtm--59" vertex="1">
          <mxGeometry y="40" width="210" height="26" as="geometry" />
        </mxCell>
        <mxCell id="6flao9yT7i9pOQDsOtm--62" value="Extends" style="endArrow=block;endSize=16;endFill=0;html=1;rounded=0;" parent="WIyWlLk6GJQsqaUBKTNV-1" source="6flao9yT7i9pOQDsOtm--56" target="6flao9yT7i9pOQDsOtm--59" edge="1">
          <mxGeometry x="0.0114" y="10" width="160" relative="1" as="geometry">
            <mxPoint x="60" y="-584" as="sourcePoint" />
            <mxPoint x="60" y="-634" as="targetPoint" />
            <Array as="points" />
            <mxPoint as="offset" />
          </mxGeometry>
        </mxCell>
        <mxCell id="6flao9yT7i9pOQDsOtm--63" value="" style="endArrow=block;dashed=1;endFill=0;endSize=12;html=1;rounded=0;" parent="WIyWlLk6GJQsqaUBKTNV-1" source="6flao9yT7i9pOQDsOtm--51" target="6flao9yT7i9pOQDsOtm--56" edge="1">
          <mxGeometry width="160" relative="1" as="geometry">
            <mxPoint x="-175" y="470" as="sourcePoint" />
            <mxPoint x="-127" y="88" as="targetPoint" />
          </mxGeometry>
        </mxCell>
        <mxCell id="6flao9yT7i9pOQDsOtm--64" value="Extends" style="endArrow=block;endSize=16;endFill=0;html=1;rounded=0;" parent="WIyWlLk6GJQsqaUBKTNV-1" source="6flao9yT7i9pOQDsOtm--23" target="6flao9yT7i9pOQDsOtm--56" edge="1">
          <mxGeometry x="0.0114" y="10" width="160" relative="1" as="geometry">
            <mxPoint x="-145" y="-550" as="sourcePoint" />
            <mxPoint x="130" y="-550" as="targetPoint" />
            <Array as="points" />
            <mxPoint as="offset" />
          </mxGeometry>
        </mxCell>
        <mxCell id="6flao9yT7i9pOQDsOtm--67" value="Extends" style="endArrow=block;endSize=16;endFill=0;html=1;rounded=0;exitX=0.536;exitY=0.025;exitDx=0;exitDy=0;exitPerimeter=0;" parent="WIyWlLk6GJQsqaUBKTNV-1" source="6flao9yT7i9pOQDsOtm--45" target="6flao9yT7i9pOQDsOtm--51" edge="1">
          <mxGeometry x="0.0114" y="10" width="160" relative="1" as="geometry">
            <mxPoint x="-8" y="-360" as="sourcePoint" />
            <mxPoint x="-101" y="-458" as="targetPoint" />
            <Array as="points" />
            <mxPoint as="offset" />
          </mxGeometry>
        </mxCell>
        <mxCell id="6flao9yT7i9pOQDsOtm--68" value="" style="endArrow=block;dashed=1;endFill=0;endSize=12;html=1;rounded=0;" parent="WIyWlLk6GJQsqaUBKTNV-1" source="6flao9yT7i9pOQDsOtm--45" target="6flao9yT7i9pOQDsOtm--30" edge="1">
          <mxGeometry width="160" relative="1" as="geometry">
            <mxPoint x="-175" y="470" as="sourcePoint" />
            <mxPoint x="-127" y="88" as="targetPoint" />
          </mxGeometry>
        </mxCell>
        <mxCell id="6flao9yT7i9pOQDsOtm--69" value="Extends" style="endArrow=block;endSize=16;endFill=0;html=1;rounded=0;" parent="WIyWlLk6GJQsqaUBKTNV-1" source="6flao9yT7i9pOQDsOtm--0" target="zkfFHV4jXpPFQw0GAbJ--6" edge="1">
          <mxGeometry x="0.0114" y="10" width="160" relative="1" as="geometry">
            <mxPoint x="35" y="692" as="sourcePoint" />
            <mxPoint x="220" y="720" as="targetPoint" />
            <Array as="points" />
            <mxPoint as="offset" />
          </mxGeometry>
        </mxCell>
        <mxCell id="6flao9yT7i9pOQDsOtm--72" value="EpollEventLoop" style="swimlane;fontStyle=1;align=center;verticalAlign=top;childLayout=stackLayout;horizontal=1;startSize=26;horizontalStack=0;resizeParent=1;resizeParentMax=0;resizeLast=0;collapsible=1;marginBottom=0;whiteSpace=wrap;html=1;rotation=0;" parent="WIyWlLk6GJQsqaUBKTNV-1" vertex="1">
          <mxGeometry x="510" y="800" width="250" height="60" as="geometry">
            <mxRectangle x="210" y="600" width="120" height="30" as="alternateBounds" />
          </mxGeometry>
        </mxCell>
        <mxCell id="6flao9yT7i9pOQDsOtm--73" value="epollFd" style="text;strokeColor=none;fillColor=none;align=left;verticalAlign=top;spacingLeft=4;spacingRight=4;overflow=hidden;rotatable=0;points=[[0,0.5],[1,0.5]];portConstraint=eastwest;whiteSpace=wrap;html=1;rotation=0;" parent="6flao9yT7i9pOQDsOtm--72" vertex="1">
          <mxGeometry y="26" width="250" height="26" as="geometry" />
        </mxCell>
        <mxCell id="6flao9yT7i9pOQDsOtm--74" value="" style="line;strokeWidth=1;fillColor=none;align=left;verticalAlign=middle;spacingTop=-1;spacingLeft=3;spacingRight=3;rotatable=0;labelPosition=right;points=[];portConstraint=eastwest;strokeColor=inherit;rotation=0;" parent="6flao9yT7i9pOQDsOtm--72" vertex="1">
          <mxGeometry y="52" width="250" height="8" as="geometry" />
        </mxCell>
        <mxCell id="6flao9yT7i9pOQDsOtm--77" value="Extends" style="endArrow=block;endSize=16;endFill=0;html=1;rounded=0;" parent="WIyWlLk6GJQsqaUBKTNV-1" source="6flao9yT7i9pOQDsOtm--72" target="zkfFHV4jXpPFQw0GAbJ--6" edge="1">
          <mxGeometry x="0.0114" y="10" width="160" relative="1" as="geometry">
            <mxPoint x="9" y="830" as="sourcePoint" />
            <mxPoint x="69" y="750" as="targetPoint" />
            <Array as="points" />
            <mxPoint as="offset" />
          </mxGeometry>
        </mxCell>
        <mxCell id="6flao9yT7i9pOQDsOtm--85" value="netty.util.concurrent (common)" style="shape=umlFrame;whiteSpace=wrap;html=1;pointerEvents=0;width=175;height=50;" parent="WIyWlLk6GJQsqaUBKTNV-1" vertex="1">
          <mxGeometry x="-695" y="-210" width="885" height="870" as="geometry" />
        </mxCell>
        <mxCell id="6flao9yT7i9pOQDsOtm--86" value="netty.channel (transport)" style="shape=umlFrame;whiteSpace=wrap;html=1;pointerEvents=0;width=140;height=50;" parent="WIyWlLk6GJQsqaUBKTNV-1" vertex="1">
          <mxGeometry x="220" y="-210" width="1940" height="1230" as="geometry" />
        </mxCell>
        <mxCell id="6flao9yT7i9pOQDsOtm--87" value="«interface»&#xa;Channel" style="swimlane;fontStyle=2;align=center;verticalAlign=top;childLayout=stackLayout;horizontal=1;startSize=50;horizontalStack=0;resizeParent=1;resizeLast=0;collapsible=1;marginBottom=0;rounded=0;shadow=0;strokeWidth=1;" parent="WIyWlLk6GJQsqaUBKTNV-1" vertex="1">
          <mxGeometry x="539" y="-132" width="330" height="236" as="geometry">
            <mxRectangle x="230" y="140" width="160" height="26" as="alternateBounds" />
          </mxGeometry>
        </mxCell>
        <mxCell id="6flao9yT7i9pOQDsOtm--88" value="&lt;font style=&quot;font-size: 11px;&quot;&gt;ChannelFuture bind(SocketAddress localAddress)&lt;/font&gt;" style="text;strokeColor=none;fillColor=none;align=left;verticalAlign=top;spacingLeft=4;spacingRight=4;overflow=hidden;rotatable=0;points=[[0,0.5],[1,0.5]];portConstraint=eastwest;whiteSpace=wrap;html=1;fontFamily=Helvetica;fontSize=11;" parent="6flao9yT7i9pOQDsOtm--87" vertex="1">
          <mxGeometry y="50" width="330" height="30" as="geometry" />
        </mxCell>
        <mxCell id="6flao9yT7i9pOQDsOtm--89" value="&lt;div style=&quot;&quot;&gt;ChannelFuture connect(SocketAddress remoteAddress)&lt;br&gt;&lt;/div&gt;" style="text;strokeColor=none;fillColor=none;align=left;verticalAlign=top;spacingLeft=4;spacingRight=4;overflow=hidden;rotatable=0;points=[[0,0.5],[1,0.5]];portConstraint=eastwest;whiteSpace=wrap;html=1;fontFamily=Helvetica;fontSize=11;" parent="6flao9yT7i9pOQDsOtm--87" vertex="1">
          <mxGeometry y="80" width="330" height="26" as="geometry" />
        </mxCell>
        <mxCell id="6flao9yT7i9pOQDsOtm--90" value="&lt;div style=&quot;&quot;&gt;Channel read()&lt;br&gt;&lt;/div&gt;" style="text;strokeColor=none;fillColor=none;align=left;verticalAlign=top;spacingLeft=4;spacingRight=4;overflow=hidden;rotatable=0;points=[[0,0.5],[1,0.5]];portConstraint=eastwest;whiteSpace=wrap;html=1;fontFamily=Helvetica;fontSize=11;" parent="6flao9yT7i9pOQDsOtm--87" vertex="1">
          <mxGeometry y="106" width="330" height="26" as="geometry" />
        </mxCell>
        <mxCell id="6flao9yT7i9pOQDsOtm--91" value="&lt;div style=&quot;&quot;&gt;ChannelFuture write(Object msg)&lt;br&gt;&lt;/div&gt;" style="text;strokeColor=none;fillColor=none;align=left;verticalAlign=top;spacingLeft=4;spacingRight=4;overflow=hidden;rotatable=0;points=[[0,0.5],[1,0.5]];portConstraint=eastwest;whiteSpace=wrap;html=1;fontFamily=Helvetica;fontSize=11;" parent="6flao9yT7i9pOQDsOtm--87" vertex="1">
          <mxGeometry y="132" width="330" height="26" as="geometry" />
        </mxCell>
        <mxCell id="6flao9yT7i9pOQDsOtm--92" value="&lt;div style=&quot;&quot;&gt;EventLoop eventLoop()&lt;br&gt;&lt;/div&gt;" style="text;strokeColor=none;fillColor=none;align=left;verticalAlign=top;spacingLeft=4;spacingRight=4;overflow=hidden;rotatable=0;points=[[0,0.5],[1,0.5]];portConstraint=eastwest;whiteSpace=wrap;html=1;fontFamily=Helvetica;fontSize=11;" parent="6flao9yT7i9pOQDsOtm--87" vertex="1">
          <mxGeometry y="158" width="330" height="26" as="geometry" />
        </mxCell>
        <mxCell id="6flao9yT7i9pOQDsOtm--93" value="&lt;div style=&quot;&quot;&gt;ChannelPipeline pipeline()&lt;br&gt;&lt;/div&gt;" style="text;strokeColor=none;fillColor=none;align=left;verticalAlign=top;spacingLeft=4;spacingRight=4;overflow=hidden;rotatable=0;points=[[0,0.5],[1,0.5]];portConstraint=eastwest;whiteSpace=wrap;html=1;fontFamily=Helvetica;fontSize=11;" parent="6flao9yT7i9pOQDsOtm--87" vertex="1">
          <mxGeometry y="184" width="330" height="26" as="geometry" />
        </mxCell>
        <mxCell id="6flao9yT7i9pOQDsOtm--94" value="&lt;div style=&quot;&quot;&gt;Channel parent()&lt;br&gt;&lt;/div&gt;" style="text;strokeColor=none;fillColor=none;align=left;verticalAlign=top;spacingLeft=4;spacingRight=4;overflow=hidden;rotatable=0;points=[[0,0.5],[1,0.5]];portConstraint=eastwest;whiteSpace=wrap;html=1;fontFamily=Helvetica;fontSize=11;" parent="6flao9yT7i9pOQDsOtm--87" vertex="1">
          <mxGeometry y="210" width="330" height="26" as="geometry" />
        </mxCell>
        <mxCell id="6flao9yT7i9pOQDsOtm--95" value="«interface»&#xa;ChannelPipeline&#xa;extends Iterable&lt;Entry&lt;String, ChannelHandler&gt;&gt;" style="swimlane;fontStyle=2;align=center;verticalAlign=top;childLayout=stackLayout;horizontal=1;startSize=50;horizontalStack=0;resizeParent=1;resizeLast=0;collapsible=1;marginBottom=0;rounded=0;shadow=0;strokeWidth=1;" parent="WIyWlLk6GJQsqaUBKTNV-1" vertex="1">
          <mxGeometry x="970" y="-132" width="360" height="236" as="geometry">
            <mxRectangle x="230" y="140" width="160" height="26" as="alternateBounds" />
          </mxGeometry>
        </mxCell>
        <mxCell id="6flao9yT7i9pOQDsOtm--96" value="&lt;font style=&quot;font-size: 11px;&quot;&gt;ChannelPipeline addFirst(String name, ChannelHandler handler)&lt;/font&gt;" style="text;strokeColor=none;fillColor=none;align=left;verticalAlign=top;spacingLeft=4;spacingRight=4;overflow=hidden;rotatable=0;points=[[0,0.5],[1,0.5]];portConstraint=eastwest;whiteSpace=wrap;html=1;fontFamily=Helvetica;fontSize=11;" parent="6flao9yT7i9pOQDsOtm--95" vertex="1">
          <mxGeometry y="50" width="360" height="30" as="geometry" />
        </mxCell>
        <mxCell id="6flao9yT7i9pOQDsOtm--97" value="&lt;div style=&quot;&quot;&gt;ChannelPipeline addLast(String name, ChannelHandler handler)&lt;br&gt;&lt;/div&gt;" style="text;strokeColor=none;fillColor=none;align=left;verticalAlign=top;spacingLeft=4;spacingRight=4;overflow=hidden;rotatable=0;points=[[0,0.5],[1,0.5]];portConstraint=eastwest;whiteSpace=wrap;html=1;fontFamily=Helvetica;fontSize=11;" parent="6flao9yT7i9pOQDsOtm--95" vertex="1">
          <mxGeometry y="80" width="360" height="26" as="geometry" />
        </mxCell>
        <mxCell id="6flao9yT7i9pOQDsOtm--98" value="&lt;div style=&quot;&quot;&gt;ChannelFuture bind(SocketAddress localAddress)&lt;br&gt;&lt;/div&gt;" style="text;strokeColor=none;fillColor=none;align=left;verticalAlign=top;spacingLeft=4;spacingRight=4;overflow=hidden;rotatable=0;points=[[0,0.5],[1,0.5]];portConstraint=eastwest;whiteSpace=wrap;html=1;fontFamily=Helvetica;fontSize=11;" parent="6flao9yT7i9pOQDsOtm--95" vertex="1">
          <mxGeometry y="106" width="360" height="26" as="geometry" />
        </mxCell>
        <mxCell id="6flao9yT7i9pOQDsOtm--99" value="&lt;div style=&quot;&quot;&gt;ChannelFuture write(Object msg)&lt;br&gt;&lt;/div&gt;" style="text;strokeColor=none;fillColor=none;align=left;verticalAlign=top;spacingLeft=4;spacingRight=4;overflow=hidden;rotatable=0;points=[[0,0.5],[1,0.5]];portConstraint=eastwest;whiteSpace=wrap;html=1;fontFamily=Helvetica;fontSize=11;" parent="6flao9yT7i9pOQDsOtm--95" vertex="1">
          <mxGeometry y="132" width="360" height="26" as="geometry" />
        </mxCell>
        <mxCell id="6flao9yT7i9pOQDsOtm--100" value="&lt;div style=&quot;&quot;&gt;EventLoop eventLoop()&lt;br&gt;&lt;/div&gt;" style="text;strokeColor=none;fillColor=none;align=left;verticalAlign=top;spacingLeft=4;spacingRight=4;overflow=hidden;rotatable=0;points=[[0,0.5],[1,0.5]];portConstraint=eastwest;whiteSpace=wrap;html=1;fontFamily=Helvetica;fontSize=11;" parent="6flao9yT7i9pOQDsOtm--95" vertex="1">
          <mxGeometry y="158" width="360" height="26" as="geometry" />
        </mxCell>
        <mxCell id="6flao9yT7i9pOQDsOtm--101" value="&lt;div style=&quot;&quot;&gt;ChannelPipeline pipeline()&lt;br&gt;&lt;/div&gt;" style="text;strokeColor=none;fillColor=none;align=left;verticalAlign=top;spacingLeft=4;spacingRight=4;overflow=hidden;rotatable=0;points=[[0,0.5],[1,0.5]];portConstraint=eastwest;whiteSpace=wrap;html=1;fontFamily=Helvetica;fontSize=11;" parent="6flao9yT7i9pOQDsOtm--95" vertex="1">
          <mxGeometry y="184" width="360" height="26" as="geometry" />
        </mxCell>
        <mxCell id="6flao9yT7i9pOQDsOtm--102" value="&lt;div style=&quot;&quot;&gt;Channel parent()&lt;br&gt;&lt;/div&gt;" style="text;strokeColor=none;fillColor=none;align=left;verticalAlign=top;spacingLeft=4;spacingRight=4;overflow=hidden;rotatable=0;points=[[0,0.5],[1,0.5]];portConstraint=eastwest;whiteSpace=wrap;html=1;fontFamily=Helvetica;fontSize=11;" parent="6flao9yT7i9pOQDsOtm--95" vertex="1">
          <mxGeometry y="210" width="360" height="26" as="geometry" />
        </mxCell>
        <mxCell id="6flao9yT7i9pOQDsOtm--103" value="Use" style="endArrow=open;endSize=12;dashed=1;html=1;rounded=0;" parent="WIyWlLk6GJQsqaUBKTNV-1" source="6flao9yT7i9pOQDsOtm--87" target="6flao9yT7i9pOQDsOtm--95" edge="1">
          <mxGeometry width="160" relative="1" as="geometry">
            <mxPoint x="220" y="270" as="sourcePoint" />
            <mxPoint x="380" y="270" as="targetPoint" />
          </mxGeometry>
        </mxCell>
        <mxCell id="6flao9yT7i9pOQDsOtm--104" value="AbstractChannel" style="swimlane;fontStyle=0;align=center;verticalAlign=top;childLayout=stackLayout;horizontal=1;startSize=26;horizontalStack=0;resizeParent=1;resizeLast=0;collapsible=1;marginBottom=0;rounded=0;shadow=0;strokeWidth=1;" parent="WIyWlLk6GJQsqaUBKTNV-1" vertex="1">
          <mxGeometry x="620" y="140" width="250" height="294" as="geometry">
            <mxRectangle x="130" y="380" width="160" height="26" as="alternateBounds" />
          </mxGeometry>
        </mxCell>
        <mxCell id="x2fH94pWOBNQvb6aWbhc-20" value="DefaultChannelPipeline pipeline" style="text;strokeColor=none;fillColor=none;align=left;verticalAlign=top;spacingLeft=4;spacingRight=4;overflow=hidden;rotatable=0;points=[[0,0.5],[1,0.5]];portConstraint=eastwest;whiteSpace=wrap;html=1;rotation=0;" vertex="1" parent="6flao9yT7i9pOQDsOtm--104">
          <mxGeometry y="26" width="250" height="26" as="geometry" />
        </mxCell>
        <mxCell id="x2fH94pWOBNQvb6aWbhc-22" value="Unsafe unsafe" style="text;strokeColor=none;fillColor=none;align=left;verticalAlign=top;spacingLeft=4;spacingRight=4;overflow=hidden;rotatable=0;points=[[0,0.5],[1,0.5]];portConstraint=eastwest;whiteSpace=wrap;html=1;rotation=0;" vertex="1" parent="6flao9yT7i9pOQDsOtm--104">
          <mxGeometry y="52" width="250" height="26" as="geometry" />
        </mxCell>
        <mxCell id="x2fH94pWOBNQvb6aWbhc-23" value="EventLoop eventLoop" style="text;strokeColor=none;fillColor=none;align=left;verticalAlign=top;spacingLeft=4;spacingRight=4;overflow=hidden;rotatable=0;points=[[0,0.5],[1,0.5]];portConstraint=eastwest;whiteSpace=wrap;html=1;rotation=0;" vertex="1" parent="6flao9yT7i9pOQDsOtm--104">
          <mxGeometry y="78" width="250" height="26" as="geometry" />
        </mxCell>
        <mxCell id="x2fH94pWOBNQvb6aWbhc-21" value="Channel parent" style="text;strokeColor=none;fillColor=none;align=left;verticalAlign=top;spacingLeft=4;spacingRight=4;overflow=hidden;rotatable=0;points=[[0,0.5],[1,0.5]];portConstraint=eastwest;whiteSpace=wrap;html=1;rotation=0;" vertex="1" parent="6flao9yT7i9pOQDsOtm--104">
          <mxGeometry y="104" width="250" height="26" as="geometry" />
        </mxCell>
        <mxCell id="x2fH94pWOBNQvb6aWbhc-24" value="SocketAddress localAddress" style="text;strokeColor=none;fillColor=none;align=left;verticalAlign=top;spacingLeft=4;spacingRight=4;overflow=hidden;rotatable=0;points=[[0,0.5],[1,0.5]];portConstraint=eastwest;whiteSpace=wrap;html=1;rotation=0;" vertex="1" parent="6flao9yT7i9pOQDsOtm--104">
          <mxGeometry y="130" width="250" height="26" as="geometry" />
        </mxCell>
        <mxCell id="x2fH94pWOBNQvb6aWbhc-25" value="SocketAddress remoteAddress" style="text;strokeColor=none;fillColor=none;align=left;verticalAlign=top;spacingLeft=4;spacingRight=4;overflow=hidden;rotatable=0;points=[[0,0.5],[1,0.5]];portConstraint=eastwest;whiteSpace=wrap;html=1;rotation=0;" vertex="1" parent="6flao9yT7i9pOQDsOtm--104">
          <mxGeometry y="156" width="250" height="26" as="geometry" />
        </mxCell>
        <mxCell id="x2fH94pWOBNQvb6aWbhc-26" value="ChannelFuture succeededFuture" style="text;strokeColor=none;fillColor=none;align=left;verticalAlign=top;spacingLeft=4;spacingRight=4;overflow=hidden;rotatable=0;points=[[0,0.5],[1,0.5]];portConstraint=eastwest;whiteSpace=wrap;html=1;rotation=0;" vertex="1" parent="6flao9yT7i9pOQDsOtm--104">
          <mxGeometry y="182" width="250" height="26" as="geometry" />
        </mxCell>
        <mxCell id="6flao9yT7i9pOQDsOtm--105" value="" style="line;html=1;strokeWidth=1;align=left;verticalAlign=middle;spacingTop=-1;spacingLeft=3;spacingRight=3;rotatable=0;labelPosition=right;points=[];portConstraint=eastwest;" parent="6flao9yT7i9pOQDsOtm--104" vertex="1">
          <mxGeometry y="208" width="250" height="8" as="geometry" />
        </mxCell>
        <mxCell id="6flao9yT7i9pOQDsOtm--106" value="&lt;div style=&quot;font-size: 11px;&quot;&gt;&lt;div style=&quot;font-size: 11px;&quot;&gt;&lt;span style=&quot;background-color: rgb(255, 255, 255); font-size: 11px;&quot;&gt;EventLoopGroup parent()&lt;/span&gt;&lt;/div&gt;&lt;/div&gt;" style="text;strokeColor=none;fillColor=none;align=left;verticalAlign=top;spacingLeft=4;spacingRight=4;overflow=hidden;rotatable=0;points=[[0,0.5],[1,0.5]];portConstraint=eastwest;whiteSpace=wrap;html=1;fontFamily=Helvetica;fontSize=11;" parent="6flao9yT7i9pOQDsOtm--104" vertex="1">
          <mxGeometry y="216" width="250" height="26" as="geometry" />
        </mxCell>
        <mxCell id="6flao9yT7i9pOQDsOtm--107" value="&lt;font style=&quot;font-size: 11px;&quot;&gt;register(Channel channel)&lt;/font&gt;" style="text;strokeColor=none;fillColor=none;align=left;verticalAlign=top;spacingLeft=4;spacingRight=4;overflow=hidden;rotatable=0;points=[[0,0.5],[1,0.5]];portConstraint=eastwest;whiteSpace=wrap;html=1;fontFamily=Helvetica;fontSize=11;" parent="6flao9yT7i9pOQDsOtm--104" vertex="1">
          <mxGeometry y="242" width="250" height="26" as="geometry" />
        </mxCell>
        <mxCell id="6flao9yT7i9pOQDsOtm--108" value="&lt;div style=&quot;font-size: 11px;&quot;&gt;&lt;span style=&quot;background-color: rgb(255, 255, 255); font-size: 11px;&quot;&gt;EventLoop next()&lt;/span&gt;&lt;/div&gt;" style="text;strokeColor=none;fillColor=none;align=left;verticalAlign=top;spacingLeft=4;spacingRight=4;overflow=hidden;rotatable=0;points=[[0,0.5],[1,0.5]];portConstraint=eastwest;whiteSpace=wrap;html=1;fontFamily=Helvetica;fontSize=11;" parent="6flao9yT7i9pOQDsOtm--104" vertex="1">
          <mxGeometry y="268" width="250" height="26" as="geometry" />
        </mxCell>
        <mxCell id="6flao9yT7i9pOQDsOtm--109" value="" style="endArrow=block;dashed=1;endFill=0;endSize=12;html=1;rounded=0;" parent="WIyWlLk6GJQsqaUBKTNV-1" source="6flao9yT7i9pOQDsOtm--104" target="6flao9yT7i9pOQDsOtm--87" edge="1">
          <mxGeometry width="160" relative="1" as="geometry">
            <mxPoint x="450" y="670" as="sourcePoint" />
            <mxPoint x="450" y="246" as="targetPoint" />
          </mxGeometry>
        </mxCell>
        <mxCell id="6flao9yT7i9pOQDsOtm--111" value="DefaultChannelPipeline" style="swimlane;fontStyle=1;align=center;verticalAlign=top;childLayout=stackLayout;horizontal=1;startSize=26;horizontalStack=0;resizeParent=1;resizeParentMax=0;resizeLast=0;collapsible=1;marginBottom=0;whiteSpace=wrap;html=1;rotation=0;" parent="WIyWlLk6GJQsqaUBKTNV-1" vertex="1">
          <mxGeometry x="970" y="218" width="360" height="138" as="geometry">
            <mxRectangle x="210" y="600" width="120" height="30" as="alternateBounds" />
          </mxGeometry>
        </mxCell>
        <mxCell id="6flao9yT7i9pOQDsOtm--112" value="Channel channel" style="text;strokeColor=none;fillColor=none;align=left;verticalAlign=top;spacingLeft=4;spacingRight=4;overflow=hidden;rotatable=0;points=[[0,0.5],[1,0.5]];portConstraint=eastwest;whiteSpace=wrap;html=1;rotation=0;" parent="6flao9yT7i9pOQDsOtm--111" vertex="1">
          <mxGeometry y="26" width="360" height="26" as="geometry" />
        </mxCell>
        <mxCell id="6flao9yT7i9pOQDsOtm--118" value="Map&amp;lt;EventExecutorGroup, EventExecutor&amp;gt; childExecutors" style="text;strokeColor=none;fillColor=none;align=left;verticalAlign=top;spacingLeft=4;spacingRight=4;overflow=hidden;rotatable=0;points=[[0,0.5],[1,0.5]];portConstraint=eastwest;whiteSpace=wrap;html=1;rotation=0;" parent="6flao9yT7i9pOQDsOtm--111" vertex="1">
          <mxGeometry y="52" width="360" height="26" as="geometry" />
        </mxCell>
        <mxCell id="6flao9yT7i9pOQDsOtm--119" value="AbstractChannelHandlerContext head" style="text;strokeColor=none;fillColor=none;align=left;verticalAlign=top;spacingLeft=4;spacingRight=4;overflow=hidden;rotatable=0;points=[[0,0.5],[1,0.5]];portConstraint=eastwest;whiteSpace=wrap;html=1;rotation=0;" parent="6flao9yT7i9pOQDsOtm--111" vertex="1">
          <mxGeometry y="78" width="360" height="26" as="geometry" />
        </mxCell>
        <mxCell id="6flao9yT7i9pOQDsOtm--120" value="AbstractChannelHandlerContext tail" style="text;strokeColor=none;fillColor=none;align=left;verticalAlign=top;spacingLeft=4;spacingRight=4;overflow=hidden;rotatable=0;points=[[0,0.5],[1,0.5]];portConstraint=eastwest;whiteSpace=wrap;html=1;rotation=0;" parent="6flao9yT7i9pOQDsOtm--111" vertex="1">
          <mxGeometry y="104" width="360" height="26" as="geometry" />
        </mxCell>
        <mxCell id="6flao9yT7i9pOQDsOtm--113" value="" style="line;strokeWidth=1;fillColor=none;align=left;verticalAlign=middle;spacingTop=-1;spacingLeft=3;spacingRight=3;rotatable=0;labelPosition=right;points=[];portConstraint=eastwest;strokeColor=inherit;rotation=0;" parent="6flao9yT7i9pOQDsOtm--111" vertex="1">
          <mxGeometry y="130" width="360" height="8" as="geometry" />
        </mxCell>
        <mxCell id="6flao9yT7i9pOQDsOtm--117" value="" style="endArrow=block;dashed=1;endFill=0;endSize=12;html=1;rounded=0;" parent="WIyWlLk6GJQsqaUBKTNV-1" source="6flao9yT7i9pOQDsOtm--111" target="6flao9yT7i9pOQDsOtm--95" edge="1">
          <mxGeometry width="160" relative="1" as="geometry">
            <mxPoint x="755" y="230" as="sourcePoint" />
            <mxPoint x="755" y="114" as="targetPoint" />
          </mxGeometry>
        </mxCell>
        <mxCell id="6flao9yT7i9pOQDsOtm--121" value="«interface»&#xa;ChannelHandler" style="swimlane;fontStyle=2;align=center;verticalAlign=top;childLayout=stackLayout;horizontal=1;startSize=50;horizontalStack=0;resizeParent=1;resizeLast=0;collapsible=1;marginBottom=0;rounded=0;shadow=0;strokeWidth=1;" parent="WIyWlLk6GJQsqaUBKTNV-1" vertex="1">
          <mxGeometry x="1420" y="-132" width="330" height="136" as="geometry">
            <mxRectangle x="230" y="140" width="160" height="26" as="alternateBounds" />
          </mxGeometry>
        </mxCell>
        <mxCell id="6flao9yT7i9pOQDsOtm--122" value="&lt;font style=&quot;font-size: 11px;&quot;&gt;void handlerAdded(ChannelHandlerContext ctx)&lt;/font&gt;" style="text;strokeColor=none;fillColor=none;align=left;verticalAlign=top;spacingLeft=4;spacingRight=4;overflow=hidden;rotatable=0;points=[[0,0.5],[1,0.5]];portConstraint=eastwest;whiteSpace=wrap;html=1;fontFamily=Helvetica;fontSize=11;" parent="6flao9yT7i9pOQDsOtm--121" vertex="1">
          <mxGeometry y="50" width="330" height="30" as="geometry" />
        </mxCell>
        <mxCell id="6flao9yT7i9pOQDsOtm--123" value="&lt;div style=&quot;&quot;&gt;void handlerRemoved(ChannelHandlerContext ctx)&lt;br&gt;&lt;/div&gt;" style="text;strokeColor=none;fillColor=none;align=left;verticalAlign=top;spacingLeft=4;spacingRight=4;overflow=hidden;rotatable=0;points=[[0,0.5],[1,0.5]];portConstraint=eastwest;whiteSpace=wrap;html=1;fontFamily=Helvetica;fontSize=11;" parent="6flao9yT7i9pOQDsOtm--121" vertex="1">
          <mxGeometry y="80" width="330" height="26" as="geometry" />
        </mxCell>
        <mxCell id="6flao9yT7i9pOQDsOtm--132" value="«interface»&#xa;ChannelHandlerContext" style="swimlane;fontStyle=2;align=center;verticalAlign=top;childLayout=stackLayout;horizontal=1;startSize=50;horizontalStack=0;resizeParent=1;resizeLast=0;collapsible=1;marginBottom=0;rounded=0;shadow=0;strokeWidth=1;" parent="WIyWlLk6GJQsqaUBKTNV-1" vertex="1">
          <mxGeometry x="1380" y="400" width="330" height="288" as="geometry">
            <mxRectangle x="230" y="140" width="160" height="26" as="alternateBounds" />
          </mxGeometry>
        </mxCell>
        <mxCell id="6flao9yT7i9pOQDsOtm--135" value="&lt;div style=&quot;&quot;&gt;ChannelHandler handler()&lt;br&gt;&lt;/div&gt;" style="text;strokeColor=none;fillColor=none;align=left;verticalAlign=top;spacingLeft=4;spacingRight=4;overflow=hidden;rotatable=0;points=[[0,0.5],[1,0.5]];portConstraint=eastwest;whiteSpace=wrap;html=1;fontFamily=Helvetica;fontSize=11;" parent="6flao9yT7i9pOQDsOtm--132" vertex="1">
          <mxGeometry y="50" width="330" height="26" as="geometry" />
        </mxCell>
        <mxCell id="6flao9yT7i9pOQDsOtm--133" value="&lt;font style=&quot;font-size: 11px;&quot;&gt;Channel channel()&lt;/font&gt;" style="text;strokeColor=none;fillColor=none;align=left;verticalAlign=top;spacingLeft=4;spacingRight=4;overflow=hidden;rotatable=0;points=[[0,0.5],[1,0.5]];portConstraint=eastwest;whiteSpace=wrap;html=1;fontFamily=Helvetica;fontSize=11;" parent="6flao9yT7i9pOQDsOtm--132" vertex="1">
          <mxGeometry y="76" width="330" height="24" as="geometry" />
        </mxCell>
        <mxCell id="6flao9yT7i9pOQDsOtm--134" value="&lt;div style=&quot;&quot;&gt;EventExecutor executor()&lt;br&gt;&lt;/div&gt;" style="text;strokeColor=none;fillColor=none;align=left;verticalAlign=top;spacingLeft=4;spacingRight=4;overflow=hidden;rotatable=0;points=[[0,0.5],[1,0.5]];portConstraint=eastwest;whiteSpace=wrap;html=1;fontFamily=Helvetica;fontSize=11;" parent="6flao9yT7i9pOQDsOtm--132" vertex="1">
          <mxGeometry y="100" width="330" height="26" as="geometry" />
        </mxCell>
        <mxCell id="6flao9yT7i9pOQDsOtm--136" value="&lt;div style=&quot;&quot;&gt;ChannelHandlerContext fireChannelRegistered()&lt;br&gt;&lt;/div&gt;" style="text;strokeColor=none;fillColor=none;align=left;verticalAlign=top;spacingLeft=4;spacingRight=4;overflow=hidden;rotatable=0;points=[[0,0.5],[1,0.5]];portConstraint=eastwest;whiteSpace=wrap;html=1;fontFamily=Helvetica;fontSize=11;" parent="6flao9yT7i9pOQDsOtm--132" vertex="1">
          <mxGeometry y="126" width="330" height="26" as="geometry" />
        </mxCell>
        <mxCell id="6flao9yT7i9pOQDsOtm--137" value="&lt;div style=&quot;&quot;&gt;ChannelHandlerContext fireChannelActive()&lt;br&gt;&lt;/div&gt;" style="text;strokeColor=none;fillColor=none;align=left;verticalAlign=top;spacingLeft=4;spacingRight=4;overflow=hidden;rotatable=0;points=[[0,0.5],[1,0.5]];portConstraint=eastwest;whiteSpace=wrap;html=1;fontFamily=Helvetica;fontSize=11;" parent="6flao9yT7i9pOQDsOtm--132" vertex="1">
          <mxGeometry y="152" width="330" height="26" as="geometry" />
        </mxCell>
        <mxCell id="6flao9yT7i9pOQDsOtm--138" value="&lt;div style=&quot;&quot;&gt;ChannelHandlerContext fireChannelRead(Object msg)&lt;br&gt;&lt;/div&gt;" style="text;strokeColor=none;fillColor=none;align=left;verticalAlign=top;spacingLeft=4;spacingRight=4;overflow=hidden;rotatable=0;points=[[0,0.5],[1,0.5]];portConstraint=eastwest;whiteSpace=wrap;html=1;fontFamily=Helvetica;fontSize=11;" parent="6flao9yT7i9pOQDsOtm--132" vertex="1">
          <mxGeometry y="178" width="330" height="26" as="geometry" />
        </mxCell>
        <mxCell id="6flao9yT7i9pOQDsOtm--142" value="&lt;div style=&quot;&quot;&gt;ChannelHandlerContext read()&lt;br&gt;&lt;/div&gt;" style="text;strokeColor=none;fillColor=none;align=left;verticalAlign=top;spacingLeft=4;spacingRight=4;overflow=hidden;rotatable=0;points=[[0,0.5],[1,0.5]];portConstraint=eastwest;whiteSpace=wrap;html=1;fontFamily=Helvetica;fontSize=11;" parent="6flao9yT7i9pOQDsOtm--132" vertex="1">
          <mxGeometry y="204" width="330" height="26" as="geometry" />
        </mxCell>
        <mxCell id="6flao9yT7i9pOQDsOtm--139" value="&lt;div style=&quot;&quot;&gt;ChannelFuture bind(SocketAddress localAddress)&lt;br&gt;&lt;/div&gt;" style="text;strokeColor=none;fillColor=none;align=left;verticalAlign=top;spacingLeft=4;spacingRight=4;overflow=hidden;rotatable=0;points=[[0,0.5],[1,0.5]];portConstraint=eastwest;whiteSpace=wrap;html=1;fontFamily=Helvetica;fontSize=11;" parent="6flao9yT7i9pOQDsOtm--132" vertex="1">
          <mxGeometry y="230" width="330" height="26" as="geometry" />
        </mxCell>
        <mxCell id="6flao9yT7i9pOQDsOtm--143" value="&lt;div style=&quot;&quot;&gt;ChannelFuture write(Object msg)&lt;br&gt;&lt;/div&gt;" style="text;strokeColor=none;fillColor=none;align=left;verticalAlign=top;spacingLeft=4;spacingRight=4;overflow=hidden;rotatable=0;points=[[0,0.5],[1,0.5]];portConstraint=eastwest;whiteSpace=wrap;html=1;fontFamily=Helvetica;fontSize=11;" parent="6flao9yT7i9pOQDsOtm--132" vertex="1">
          <mxGeometry y="256" width="330" height="26" as="geometry" />
        </mxCell>
        <mxCell id="6flao9yT7i9pOQDsOtm--141" value="Use" style="endArrow=open;endSize=12;dashed=1;html=1;rounded=0;" parent="WIyWlLk6GJQsqaUBKTNV-1" source="6flao9yT7i9pOQDsOtm--95" target="6flao9yT7i9pOQDsOtm--121" edge="1">
          <mxGeometry width="160" relative="1" as="geometry">
            <mxPoint x="1620" y="260" as="sourcePoint" />
            <mxPoint x="1680" y="260" as="targetPoint" />
          </mxGeometry>
        </mxCell>
        <mxCell id="6flao9yT7i9pOQDsOtm--144" value="AbstractChannelHandlerContext" style="swimlane;fontStyle=0;align=center;verticalAlign=top;childLayout=stackLayout;horizontal=1;startSize=26;horizontalStack=0;resizeParent=1;resizeLast=0;collapsible=1;marginBottom=0;rounded=0;shadow=0;strokeWidth=1;" parent="WIyWlLk6GJQsqaUBKTNV-1" vertex="1">
          <mxGeometry x="990" y="419" width="320" height="370" as="geometry">
            <mxRectangle x="130" y="380" width="160" height="26" as="alternateBounds" />
          </mxGeometry>
        </mxCell>
        <mxCell id="x2fH94pWOBNQvb6aWbhc-37" value="&lt;font style=&quot;font-size: 11px;&quot;&gt;AbstractChannelHandlerContext next&lt;/font&gt;" style="text;strokeColor=none;fillColor=none;align=left;verticalAlign=top;spacingLeft=4;spacingRight=4;overflow=hidden;rotatable=0;points=[[0,0.5],[1,0.5]];portConstraint=eastwest;whiteSpace=wrap;html=1;fontFamily=Helvetica;fontSize=11;" vertex="1" parent="6flao9yT7i9pOQDsOtm--144">
          <mxGeometry y="26" width="320" height="30" as="geometry" />
        </mxCell>
        <mxCell id="x2fH94pWOBNQvb6aWbhc-39" value="&lt;font style=&quot;font-size: 11px;&quot;&gt;AbstractChannelHandlerContext prev&lt;/font&gt;" style="text;strokeColor=none;fillColor=none;align=left;verticalAlign=top;spacingLeft=4;spacingRight=4;overflow=hidden;rotatable=0;points=[[0,0.5],[1,0.5]];portConstraint=eastwest;whiteSpace=wrap;html=1;fontFamily=Helvetica;fontSize=11;" vertex="1" parent="6flao9yT7i9pOQDsOtm--144">
          <mxGeometry y="56" width="320" height="30" as="geometry" />
        </mxCell>
        <mxCell id="x2fH94pWOBNQvb6aWbhc-38" value="&lt;font style=&quot;font-size: 11px;&quot;&gt;DefaultChannelPipeline pipeline&lt;/font&gt;" style="text;strokeColor=none;fillColor=none;align=left;verticalAlign=top;spacingLeft=4;spacingRight=4;overflow=hidden;rotatable=0;points=[[0,0.5],[1,0.5]];portConstraint=eastwest;whiteSpace=wrap;html=1;fontFamily=Helvetica;fontSize=11;" vertex="1" parent="6flao9yT7i9pOQDsOtm--144">
          <mxGeometry y="86" width="320" height="30" as="geometry" />
        </mxCell>
        <mxCell id="x2fH94pWOBNQvb6aWbhc-41" value="&lt;font style=&quot;font-size: 11px;&quot;&gt;EventExecutor executor&lt;/font&gt;" style="text;strokeColor=none;fillColor=none;align=left;verticalAlign=top;spacingLeft=4;spacingRight=4;overflow=hidden;rotatable=0;points=[[0,0.5],[1,0.5]];portConstraint=eastwest;whiteSpace=wrap;html=1;fontFamily=Helvetica;fontSize=11;" vertex="1" parent="6flao9yT7i9pOQDsOtm--144">
          <mxGeometry y="116" width="320" height="30" as="geometry" />
        </mxCell>
        <mxCell id="x2fH94pWOBNQvb6aWbhc-40" value="&lt;font style=&quot;font-size: 11px;&quot;&gt;DefaultChannelPipeline pipeline&lt;/font&gt;" style="text;strokeColor=none;fillColor=none;align=left;verticalAlign=top;spacingLeft=4;spacingRight=4;overflow=hidden;rotatable=0;points=[[0,0.5],[1,0.5]];portConstraint=eastwest;whiteSpace=wrap;html=1;fontFamily=Helvetica;fontSize=11;" vertex="1" parent="6flao9yT7i9pOQDsOtm--144">
          <mxGeometry y="146" width="320" height="30" as="geometry" />
        </mxCell>
        <mxCell id="6flao9yT7i9pOQDsOtm--145" value="" style="line;html=1;strokeWidth=1;align=left;verticalAlign=middle;spacingTop=-1;spacingLeft=3;spacingRight=3;rotatable=0;labelPosition=right;points=[];portConstraint=eastwest;" parent="6flao9yT7i9pOQDsOtm--144" vertex="1">
          <mxGeometry y="176" width="320" height="8" as="geometry" />
        </mxCell>
        <mxCell id="6flao9yT7i9pOQDsOtm--151" value="&lt;font style=&quot;font-size: 11px;&quot;&gt;Channel channel()&lt;/font&gt;" style="text;strokeColor=none;fillColor=none;align=left;verticalAlign=top;spacingLeft=4;spacingRight=4;overflow=hidden;rotatable=0;points=[[0,0.5],[1,0.5]];portConstraint=eastwest;whiteSpace=wrap;html=1;fontFamily=Helvetica;fontSize=11;" parent="6flao9yT7i9pOQDsOtm--144" vertex="1">
          <mxGeometry y="184" width="320" height="30" as="geometry" />
        </mxCell>
        <mxCell id="6flao9yT7i9pOQDsOtm--152" value="&lt;div style=&quot;&quot;&gt;EventExecutor executor()&lt;br&gt;&lt;/div&gt;" style="text;strokeColor=none;fillColor=none;align=left;verticalAlign=top;spacingLeft=4;spacingRight=4;overflow=hidden;rotatable=0;points=[[0,0.5],[1,0.5]];portConstraint=eastwest;whiteSpace=wrap;html=1;fontFamily=Helvetica;fontSize=11;" parent="6flao9yT7i9pOQDsOtm--144" vertex="1">
          <mxGeometry y="214" width="320" height="26" as="geometry" />
        </mxCell>
        <mxCell id="6flao9yT7i9pOQDsOtm--156" value="&lt;div style=&quot;&quot;&gt;ChannelFuture write(Object msg)&lt;br&gt;&lt;/div&gt;" style="text;strokeColor=none;fillColor=none;align=left;verticalAlign=top;spacingLeft=4;spacingRight=4;overflow=hidden;rotatable=0;points=[[0,0.5],[1,0.5]];portConstraint=eastwest;whiteSpace=wrap;html=1;fontFamily=Helvetica;fontSize=11;" parent="6flao9yT7i9pOQDsOtm--144" vertex="1">
          <mxGeometry y="240" width="320" height="26" as="geometry" />
        </mxCell>
        <mxCell id="6flao9yT7i9pOQDsOtm--155" value="&lt;div style=&quot;&quot;&gt;ChannelFuture bind(SocketAddress localAddress)&lt;br&gt;&lt;/div&gt;" style="text;strokeColor=none;fillColor=none;align=left;verticalAlign=top;spacingLeft=4;spacingRight=4;overflow=hidden;rotatable=0;points=[[0,0.5],[1,0.5]];portConstraint=eastwest;whiteSpace=wrap;html=1;fontFamily=Helvetica;fontSize=11;" parent="6flao9yT7i9pOQDsOtm--144" vertex="1">
          <mxGeometry y="266" width="320" height="26" as="geometry" />
        </mxCell>
        <mxCell id="6flao9yT7i9pOQDsOtm--154" value="&lt;div style=&quot;&quot;&gt;ChannelHandlerContext fireChannelRead(Object msg)&lt;br&gt;&lt;/div&gt;" style="text;strokeColor=none;fillColor=none;align=left;verticalAlign=top;spacingLeft=4;spacingRight=4;overflow=hidden;rotatable=0;points=[[0,0.5],[1,0.5]];portConstraint=eastwest;whiteSpace=wrap;html=1;fontFamily=Helvetica;fontSize=11;" parent="6flao9yT7i9pOQDsOtm--144" vertex="1">
          <mxGeometry y="292" width="320" height="26" as="geometry" />
        </mxCell>
        <mxCell id="6flao9yT7i9pOQDsOtm--153" value="&lt;div style=&quot;&quot;&gt;ChannelHandlerContext fireChannelRegistered()&lt;br&gt;&lt;/div&gt;" style="text;strokeColor=none;fillColor=none;align=left;verticalAlign=top;spacingLeft=4;spacingRight=4;overflow=hidden;rotatable=0;points=[[0,0.5],[1,0.5]];portConstraint=eastwest;whiteSpace=wrap;html=1;fontFamily=Helvetica;fontSize=11;" parent="6flao9yT7i9pOQDsOtm--144" vertex="1">
          <mxGeometry y="318" width="320" height="26" as="geometry" />
        </mxCell>
        <mxCell id="6flao9yT7i9pOQDsOtm--157" value="&lt;div style=&quot;&quot;&gt;未实现handler方法&lt;/div&gt;" style="text;strokeColor=none;fillColor=none;align=left;verticalAlign=top;spacingLeft=4;spacingRight=4;overflow=hidden;rotatable=0;points=[[0,0.5],[1,0.5]];portConstraint=eastwest;whiteSpace=wrap;html=1;fontFamily=Helvetica;fontSize=11;" parent="6flao9yT7i9pOQDsOtm--144" vertex="1">
          <mxGeometry y="344" width="320" height="26" as="geometry" />
        </mxCell>
        <mxCell id="6flao9yT7i9pOQDsOtm--149" value="" style="endArrow=block;dashed=1;endFill=0;endSize=12;html=1;rounded=0;" parent="WIyWlLk6GJQsqaUBKTNV-1" source="6flao9yT7i9pOQDsOtm--144" target="6flao9yT7i9pOQDsOtm--132" edge="1">
          <mxGeometry width="160" relative="1" as="geometry">
            <mxPoint x="1070" y="694" as="sourcePoint" />
            <mxPoint x="1070" y="588" as="targetPoint" />
          </mxGeometry>
        </mxCell>
        <mxCell id="x2fH94pWOBNQvb6aWbhc-0" value="«interface»&#xa;ChannelInboundHandler" style="swimlane;fontStyle=2;align=center;verticalAlign=top;childLayout=stackLayout;horizontal=1;startSize=50;horizontalStack=0;resizeParent=1;resizeLast=0;collapsible=1;marginBottom=0;rounded=0;shadow=0;strokeWidth=1;" vertex="1" parent="WIyWlLk6GJQsqaUBKTNV-1">
          <mxGeometry x="1460" y="110" width="330" height="136" as="geometry">
            <mxRectangle x="230" y="140" width="160" height="26" as="alternateBounds" />
          </mxGeometry>
        </mxCell>
        <mxCell id="x2fH94pWOBNQvb6aWbhc-1" value="&lt;font style=&quot;font-size: 11px;&quot;&gt;void channelRegistered(ChannelHandlerContext ctx)&lt;/font&gt;" style="text;strokeColor=none;fillColor=none;align=left;verticalAlign=top;spacingLeft=4;spacingRight=4;overflow=hidden;rotatable=0;points=[[0,0.5],[1,0.5]];portConstraint=eastwest;whiteSpace=wrap;html=1;fontFamily=Helvetica;fontSize=11;" vertex="1" parent="x2fH94pWOBNQvb6aWbhc-0">
          <mxGeometry y="50" width="330" height="30" as="geometry" />
        </mxCell>
        <mxCell id="x2fH94pWOBNQvb6aWbhc-2" value="&lt;div style=&quot;&quot;&gt;void channelRead(ChannelHandlerContext ctx, Object msg)&lt;br&gt;&lt;/div&gt;" style="text;strokeColor=none;fillColor=none;align=left;verticalAlign=top;spacingLeft=4;spacingRight=4;overflow=hidden;rotatable=0;points=[[0,0.5],[1,0.5]];portConstraint=eastwest;whiteSpace=wrap;html=1;fontFamily=Helvetica;fontSize=11;" vertex="1" parent="x2fH94pWOBNQvb6aWbhc-0">
          <mxGeometry y="80" width="330" height="26" as="geometry" />
        </mxCell>
        <mxCell id="x2fH94pWOBNQvb6aWbhc-3" value="Extends" style="endArrow=block;endSize=16;endFill=0;html=1;rounded=0;" edge="1" parent="WIyWlLk6GJQsqaUBKTNV-1" source="x2fH94pWOBNQvb6aWbhc-0" target="6flao9yT7i9pOQDsOtm--121">
          <mxGeometry x="0.0114" y="10" width="160" relative="1" as="geometry">
            <mxPoint x="450" y="180" as="sourcePoint" />
            <mxPoint x="450" y="62" as="targetPoint" />
            <Array as="points" />
            <mxPoint as="offset" />
          </mxGeometry>
        </mxCell>
        <mxCell id="x2fH94pWOBNQvb6aWbhc-4" value="ChannelHandlerAdapter" style="swimlane;fontStyle=1;align=center;verticalAlign=top;childLayout=stackLayout;horizontal=1;startSize=26;horizontalStack=0;resizeParent=1;resizeParentMax=0;resizeLast=0;collapsible=1;marginBottom=0;whiteSpace=wrap;html=1;rotation=0;" vertex="1" parent="WIyWlLk6GJQsqaUBKTNV-1">
          <mxGeometry x="1810" y="63" width="300" height="150" as="geometry">
            <mxRectangle x="210" y="600" width="120" height="30" as="alternateBounds" />
          </mxGeometry>
        </mxCell>
        <mxCell id="x2fH94pWOBNQvb6aWbhc-5" value="boolean added" style="text;strokeColor=none;fillColor=none;align=left;verticalAlign=top;spacingLeft=4;spacingRight=4;overflow=hidden;rotatable=0;points=[[0,0.5],[1,0.5]];portConstraint=eastwest;whiteSpace=wrap;html=1;rotation=0;" vertex="1" parent="x2fH94pWOBNQvb6aWbhc-4">
          <mxGeometry y="26" width="300" height="26" as="geometry" />
        </mxCell>
        <mxCell id="x2fH94pWOBNQvb6aWbhc-6" value="" style="line;strokeWidth=1;fillColor=none;align=left;verticalAlign=middle;spacingTop=-1;spacingLeft=3;spacingRight=3;rotatable=0;labelPosition=right;points=[];portConstraint=eastwest;strokeColor=inherit;rotation=0;" vertex="1" parent="x2fH94pWOBNQvb6aWbhc-4">
          <mxGeometry y="52" width="300" height="8" as="geometry" />
        </mxCell>
        <mxCell id="x2fH94pWOBNQvb6aWbhc-7" value="boolean isSharable()" style="text;strokeColor=none;fillColor=none;align=left;verticalAlign=top;spacingLeft=4;spacingRight=4;overflow=hidden;rotatable=0;points=[[0,0.5],[1,0.5]];portConstraint=eastwest;whiteSpace=wrap;html=1;rotation=0;" vertex="1" parent="x2fH94pWOBNQvb6aWbhc-4">
          <mxGeometry y="60" width="300" height="30" as="geometry" />
        </mxCell>
        <mxCell id="x2fH94pWOBNQvb6aWbhc-17" value="void handlerAdded(ChannelHandlerContext ctx)" style="text;strokeColor=none;fillColor=none;align=left;verticalAlign=top;spacingLeft=4;spacingRight=4;overflow=hidden;rotatable=0;points=[[0,0.5],[1,0.5]];portConstraint=eastwest;whiteSpace=wrap;html=1;rotation=0;" vertex="1" parent="x2fH94pWOBNQvb6aWbhc-4">
          <mxGeometry y="90" width="300" height="30" as="geometry" />
        </mxCell>
        <mxCell id="x2fH94pWOBNQvb6aWbhc-18" value="void handlerRemoved(ChannelHandlerContext ctx)" style="text;strokeColor=none;fillColor=none;align=left;verticalAlign=top;spacingLeft=4;spacingRight=4;overflow=hidden;rotatable=0;points=[[0,0.5],[1,0.5]];portConstraint=eastwest;whiteSpace=wrap;html=1;rotation=0;" vertex="1" parent="x2fH94pWOBNQvb6aWbhc-4">
          <mxGeometry y="120" width="300" height="30" as="geometry" />
        </mxCell>
        <mxCell id="x2fH94pWOBNQvb6aWbhc-10" value="" style="endArrow=block;dashed=1;endFill=0;endSize=12;html=1;rounded=0;" edge="1" parent="WIyWlLk6GJQsqaUBKTNV-1" source="x2fH94pWOBNQvb6aWbhc-4" target="6flao9yT7i9pOQDsOtm--121">
          <mxGeometry width="160" relative="1" as="geometry">
            <mxPoint x="755" y="230" as="sourcePoint" />
            <mxPoint x="755" y="114" as="targetPoint" />
          </mxGeometry>
        </mxCell>
        <mxCell id="x2fH94pWOBNQvb6aWbhc-11" value="ChannelInboundHandlerAdapter" style="swimlane;fontStyle=1;align=center;verticalAlign=top;childLayout=stackLayout;horizontal=1;startSize=26;horizontalStack=0;resizeParent=1;resizeParentMax=0;resizeLast=0;collapsible=1;marginBottom=0;whiteSpace=wrap;html=1;rotation=0;" vertex="1" parent="WIyWlLk6GJQsqaUBKTNV-1">
          <mxGeometry x="1780" y="290" width="350" height="94" as="geometry">
            <mxRectangle x="210" y="600" width="120" height="30" as="alternateBounds" />
          </mxGeometry>
        </mxCell>
        <mxCell id="x2fH94pWOBNQvb6aWbhc-13" value="" style="line;strokeWidth=1;fillColor=none;align=left;verticalAlign=middle;spacingTop=-1;spacingLeft=3;spacingRight=3;rotatable=0;labelPosition=right;points=[];portConstraint=eastwest;strokeColor=inherit;rotation=0;" vertex="1" parent="x2fH94pWOBNQvb6aWbhc-11">
          <mxGeometry y="26" width="350" height="8" as="geometry" />
        </mxCell>
        <mxCell id="x2fH94pWOBNQvb6aWbhc-14" value="void channelRegistered(ChannelHandlerContext ctx)" style="text;strokeColor=none;fillColor=none;align=left;verticalAlign=top;spacingLeft=4;spacingRight=4;overflow=hidden;rotatable=0;points=[[0,0.5],[1,0.5]];portConstraint=eastwest;whiteSpace=wrap;html=1;rotation=0;" vertex="1" parent="x2fH94pWOBNQvb6aWbhc-11">
          <mxGeometry y="34" width="350" height="30" as="geometry" />
        </mxCell>
        <mxCell id="x2fH94pWOBNQvb6aWbhc-19" value="void channelRead(ChannelHandlerContext ctx, Object msg)" style="text;strokeColor=none;fillColor=none;align=left;verticalAlign=top;spacingLeft=4;spacingRight=4;overflow=hidden;rotatable=0;points=[[0,0.5],[1,0.5]];portConstraint=eastwest;whiteSpace=wrap;html=1;rotation=0;" vertex="1" parent="x2fH94pWOBNQvb6aWbhc-11">
          <mxGeometry y="64" width="350" height="30" as="geometry" />
        </mxCell>
        <mxCell id="x2fH94pWOBNQvb6aWbhc-15" value="Extends" style="endArrow=block;endSize=16;endFill=0;html=1;rounded=0;" edge="1" parent="WIyWlLk6GJQsqaUBKTNV-1" source="x2fH94pWOBNQvb6aWbhc-11" target="x2fH94pWOBNQvb6aWbhc-4">
          <mxGeometry x="0.0114" y="10" width="160" relative="1" as="geometry">
            <mxPoint x="1534" y="94" as="sourcePoint" />
            <mxPoint x="1556" y="20" as="targetPoint" />
            <Array as="points" />
            <mxPoint as="offset" />
          </mxGeometry>
        </mxCell>
        <mxCell id="x2fH94pWOBNQvb6aWbhc-16" value="" style="endArrow=block;dashed=1;endFill=0;endSize=12;html=1;rounded=0;" edge="1" parent="WIyWlLk6GJQsqaUBKTNV-1" source="x2fH94pWOBNQvb6aWbhc-11" target="x2fH94pWOBNQvb6aWbhc-0">
          <mxGeometry width="160" relative="1" as="geometry">
            <mxPoint x="1809" y="90" as="sourcePoint" />
            <mxPoint x="1690" y="20" as="targetPoint" />
          </mxGeometry>
        </mxCell>
        <mxCell id="x2fH94pWOBNQvb6aWbhc-27" value="DefaultChannelHandlerContext" style="swimlane;fontStyle=0;align=center;verticalAlign=top;childLayout=stackLayout;horizontal=1;startSize=26;horizontalStack=0;resizeParent=1;resizeLast=0;collapsible=1;marginBottom=0;rounded=0;shadow=0;strokeWidth=1;" vertex="1" parent="WIyWlLk6GJQsqaUBKTNV-1">
          <mxGeometry x="1334" y="865" width="320" height="100" as="geometry">
            <mxRectangle x="130" y="380" width="160" height="26" as="alternateBounds" />
          </mxGeometry>
        </mxCell>
        <mxCell id="x2fH94pWOBNQvb6aWbhc-29" value="&lt;font style=&quot;font-size: 11px;&quot;&gt;ChannelHandler handler&lt;/font&gt;" style="text;strokeColor=none;fillColor=none;align=left;verticalAlign=top;spacingLeft=4;spacingRight=4;overflow=hidden;rotatable=0;points=[[0,0.5],[1,0.5]];portConstraint=eastwest;whiteSpace=wrap;html=1;fontFamily=Helvetica;fontSize=11;" vertex="1" parent="x2fH94pWOBNQvb6aWbhc-27">
          <mxGeometry y="26" width="320" height="30" as="geometry" />
        </mxCell>
        <mxCell id="x2fH94pWOBNQvb6aWbhc-28" value="" style="line;html=1;strokeWidth=1;align=left;verticalAlign=middle;spacingTop=-1;spacingLeft=3;spacingRight=3;rotatable=0;labelPosition=right;points=[];portConstraint=eastwest;" vertex="1" parent="x2fH94pWOBNQvb6aWbhc-27">
          <mxGeometry y="56" width="320" height="8" as="geometry" />
        </mxCell>
        <mxCell id="x2fH94pWOBNQvb6aWbhc-30" value="&lt;div style=&quot;&quot;&gt;ChannelHandler handler()&lt;br&gt;&lt;/div&gt;" style="text;strokeColor=none;fillColor=none;align=left;verticalAlign=top;spacingLeft=4;spacingRight=4;overflow=hidden;rotatable=0;points=[[0,0.5],[1,0.5]];portConstraint=eastwest;whiteSpace=wrap;html=1;fontFamily=Helvetica;fontSize=11;" vertex="1" parent="x2fH94pWOBNQvb6aWbhc-27">
          <mxGeometry y="64" width="320" height="26" as="geometry" />
        </mxCell>
        <mxCell id="x2fH94pWOBNQvb6aWbhc-36" value="Extends" style="endArrow=block;endSize=16;endFill=0;html=1;rounded=0;" edge="1" parent="WIyWlLk6GJQsqaUBKTNV-1" source="x2fH94pWOBNQvb6aWbhc-27" target="6flao9yT7i9pOQDsOtm--144">
          <mxGeometry x="0.0114" y="10" width="160" relative="1" as="geometry">
            <mxPoint x="618" y="860" as="sourcePoint" />
            <mxPoint x="520" y="782" as="targetPoint" />
            <Array as="points" />
            <mxPoint as="offset" />
          </mxGeometry>
        </mxCell>
        <mxCell id="x2fH94pWOBNQvb6aWbhc-42" value="" style="endArrow=none;html=1;edgeStyle=orthogonalEdgeStyle;rounded=0;" edge="1" parent="WIyWlLk6GJQsqaUBKTNV-1" source="6flao9yT7i9pOQDsOtm--104" target="6flao9yT7i9pOQDsOtm--111">
          <mxGeometry relative="1" as="geometry">
            <mxPoint x="870" y="680" as="sourcePoint" />
            <mxPoint x="1030" y="680" as="targetPoint" />
          </mxGeometry>
        </mxCell>
        <mxCell id="x2fH94pWOBNQvb6aWbhc-43" value="1" style="edgeLabel;resizable=0;html=1;align=left;verticalAlign=bottom;" connectable="0" vertex="1" parent="x2fH94pWOBNQvb6aWbhc-42">
          <mxGeometry x="-1" relative="1" as="geometry">
            <mxPoint x="10" as="offset" />
          </mxGeometry>
        </mxCell>
        <mxCell id="x2fH94pWOBNQvb6aWbhc-44" value="1" style="edgeLabel;resizable=0;html=1;align=right;verticalAlign=bottom;" connectable="0" vertex="1" parent="x2fH94pWOBNQvb6aWbhc-42">
          <mxGeometry x="1" relative="1" as="geometry">
            <mxPoint x="-10" as="offset" />
          </mxGeometry>
        </mxCell>
        <mxCell id="x2fH94pWOBNQvb6aWbhc-45" value="" style="endArrow=none;html=1;edgeStyle=orthogonalEdgeStyle;rounded=0;" edge="1" parent="WIyWlLk6GJQsqaUBKTNV-1" source="6flao9yT7i9pOQDsOtm--111" target="6flao9yT7i9pOQDsOtm--144">
          <mxGeometry relative="1" as="geometry">
            <mxPoint x="930" y="530" as="sourcePoint" />
            <mxPoint x="1030" y="530" as="targetPoint" />
          </mxGeometry>
        </mxCell>
        <mxCell id="x2fH94pWOBNQvb6aWbhc-46" value="1" style="edgeLabel;resizable=0;html=1;align=left;verticalAlign=bottom;" connectable="0" vertex="1" parent="x2fH94pWOBNQvb6aWbhc-45">
          <mxGeometry x="-1" relative="1" as="geometry">
            <mxPoint x="10" y="26" as="offset" />
          </mxGeometry>
        </mxCell>
        <mxCell id="x2fH94pWOBNQvb6aWbhc-47" value="*" style="edgeLabel;resizable=0;html=1;align=right;verticalAlign=bottom;" connectable="0" vertex="1" parent="x2fH94pWOBNQvb6aWbhc-45">
          <mxGeometry x="1" relative="1" as="geometry">
            <mxPoint x="-10" y="-9" as="offset" />
          </mxGeometry>
        </mxCell>
        <mxCell id="x2fH94pWOBNQvb6aWbhc-48" value="Use" style="endArrow=open;endSize=12;dashed=1;html=1;rounded=0;" edge="1" parent="WIyWlLk6GJQsqaUBKTNV-1" source="6flao9yT7i9pOQDsOtm--132" target="6flao9yT7i9pOQDsOtm--121">
          <mxGeometry x="0.0241" y="-8" width="160" relative="1" as="geometry">
            <mxPoint x="1464" y="300" as="sourcePoint" />
            <mxPoint x="1420" y="-10" as="targetPoint" />
            <Array as="points">
              <mxPoint x="1390" y="190" />
            </Array>
            <mxPoint as="offset" />
          </mxGeometry>
        </mxCell>
        <mxCell id="x2fH94pWOBNQvb6aWbhc-49" value="MultiThreadEventLoopGroup" style="swimlane;fontStyle=0;align=center;verticalAlign=top;childLayout=stackLayout;horizontal=1;startSize=26;horizontalStack=0;resizeParent=1;resizeLast=0;collapsible=1;marginBottom=0;rounded=0;shadow=0;strokeWidth=1;" vertex="1" parent="WIyWlLk6GJQsqaUBKTNV-1">
          <mxGeometry x="245" y="308" width="190" height="92" as="geometry">
            <mxRectangle x="130" y="380" width="160" height="26" as="alternateBounds" />
          </mxGeometry>
        </mxCell>
        <mxCell id="x2fH94pWOBNQvb6aWbhc-50" value="" style="line;html=1;strokeWidth=1;align=left;verticalAlign=middle;spacingTop=-1;spacingLeft=3;spacingRight=3;rotatable=0;labelPosition=right;points=[];portConstraint=eastwest;" vertex="1" parent="x2fH94pWOBNQvb6aWbhc-49">
          <mxGeometry y="26" width="190" height="8" as="geometry" />
        </mxCell>
        <mxCell id="x2fH94pWOBNQvb6aWbhc-52" value="&lt;font style=&quot;font-size: 11px;&quot;&gt;register(Channel channel)&lt;/font&gt;" style="text;strokeColor=none;fillColor=none;align=left;verticalAlign=top;spacingLeft=4;spacingRight=4;overflow=hidden;rotatable=0;points=[[0,0.5],[1,0.5]];portConstraint=eastwest;whiteSpace=wrap;html=1;fontFamily=Helvetica;fontSize=11;" vertex="1" parent="x2fH94pWOBNQvb6aWbhc-49">
          <mxGeometry y="34" width="190" height="26" as="geometry" />
        </mxCell>
        <mxCell id="x2fH94pWOBNQvb6aWbhc-53" value="&lt;div style=&quot;font-size: 11px;&quot;&gt;&lt;span style=&quot;background-color: rgb(255, 255, 255); font-size: 11px;&quot;&gt;EventLoop next();&lt;/span&gt;&lt;/div&gt;" style="text;strokeColor=none;fillColor=none;align=left;verticalAlign=top;spacingLeft=4;spacingRight=4;overflow=hidden;rotatable=0;points=[[0,0.5],[1,0.5]];portConstraint=eastwest;whiteSpace=wrap;html=1;fontFamily=Helvetica;fontSize=11;" vertex="1" parent="x2fH94pWOBNQvb6aWbhc-49">
          <mxGeometry y="60" width="190" height="26" as="geometry" />
        </mxCell>
        <mxCell id="x2fH94pWOBNQvb6aWbhc-54" value="MultiThreadEventExecutorGroup" style="swimlane;fontStyle=2;align=center;verticalAlign=top;childLayout=stackLayout;horizontal=1;startSize=26;horizontalStack=0;resizeParent=1;resizeLast=0;collapsible=1;marginBottom=0;rounded=0;shadow=0;strokeWidth=1;" vertex="1" parent="WIyWlLk6GJQsqaUBKTNV-1">
          <mxGeometry x="-40" y="220" width="210" height="112" as="geometry">
            <mxRectangle x="230" y="140" width="160" height="26" as="alternateBounds" />
          </mxGeometry>
        </mxCell>
        <mxCell id="x2fH94pWOBNQvb6aWbhc-55" value="EventExecutor[] children" style="text;align=left;verticalAlign=top;spacingLeft=4;spacingRight=4;overflow=hidden;rotatable=0;points=[[0,0.5],[1,0.5]];portConstraint=eastwest;" vertex="1" parent="x2fH94pWOBNQvb6aWbhc-54">
          <mxGeometry y="26" width="210" height="26" as="geometry" />
        </mxCell>
        <mxCell id="x2fH94pWOBNQvb6aWbhc-56" value="EventExecutorChooser chooser" style="text;align=left;verticalAlign=top;spacingLeft=4;spacingRight=4;overflow=hidden;rotatable=0;points=[[0,0.5],[1,0.5]];portConstraint=eastwest;" vertex="1" parent="x2fH94pWOBNQvb6aWbhc-54">
          <mxGeometry y="52" width="210" height="26" as="geometry" />
        </mxCell>
        <mxCell id="x2fH94pWOBNQvb6aWbhc-58" value="" style="line;html=1;strokeWidth=1;align=left;verticalAlign=middle;spacingTop=-1;spacingLeft=3;spacingRight=3;rotatable=0;labelPosition=right;points=[];portConstraint=eastwest;" vertex="1" parent="x2fH94pWOBNQvb6aWbhc-54">
          <mxGeometry y="78" width="210" height="8" as="geometry" />
        </mxCell>
        <mxCell id="x2fH94pWOBNQvb6aWbhc-59" value="EventExecutor next()" style="text;align=left;verticalAlign=top;spacingLeft=4;spacingRight=4;overflow=hidden;rotatable=0;points=[[0,0.5],[1,0.5]];portConstraint=eastwest;" vertex="1" parent="x2fH94pWOBNQvb6aWbhc-54">
          <mxGeometry y="86" width="210" height="26" as="geometry" />
        </mxCell>
        <mxCell id="x2fH94pWOBNQvb6aWbhc-62" value="AbstractEventExecutorGroup" style="swimlane;fontStyle=2;align=center;verticalAlign=top;childLayout=stackLayout;horizontal=1;startSize=26;horizontalStack=0;resizeParent=1;resizeLast=0;collapsible=1;marginBottom=0;rounded=0;shadow=0;strokeWidth=1;" vertex="1" parent="WIyWlLk6GJQsqaUBKTNV-1">
          <mxGeometry x="-40" y="-30" width="210" height="190" as="geometry">
            <mxRectangle x="230" y="140" width="160" height="26" as="alternateBounds" />
          </mxGeometry>
        </mxCell>
        <mxCell id="x2fH94pWOBNQvb6aWbhc-66" value="" style="line;html=1;strokeWidth=1;align=left;verticalAlign=middle;spacingTop=-1;spacingLeft=3;spacingRight=3;rotatable=0;labelPosition=right;points=[];portConstraint=eastwest;" vertex="1" parent="x2fH94pWOBNQvb6aWbhc-62">
          <mxGeometry y="26" width="210" height="8" as="geometry" />
        </mxCell>
        <mxCell id="x2fH94pWOBNQvb6aWbhc-67" value="ScheduledFuture&lt;?&gt; schedule(Runnable command, long delay, TimeUnit unit)" style="text;align=left;verticalAlign=top;spacingLeft=4;spacingRight=4;overflow=hidden;rotatable=0;points=[[0,0.5],[1,0.5]];portConstraint=eastwest;" vertex="1" parent="x2fH94pWOBNQvb6aWbhc-62">
          <mxGeometry y="34" width="210" height="26" as="geometry" />
        </mxCell>
        <mxCell id="x2fH94pWOBNQvb6aWbhc-68" value="Future&lt;T&gt; submit(Callable&lt;T&gt; task)" style="text;align=left;verticalAlign=top;spacingLeft=4;spacingRight=4;overflow=hidden;rotatable=0;points=[[0,0.5],[1,0.5]];portConstraint=eastwest;" vertex="1" parent="x2fH94pWOBNQvb6aWbhc-62">
          <mxGeometry y="60" width="210" height="26" as="geometry" />
        </mxCell>
        <mxCell id="x2fH94pWOBNQvb6aWbhc-69" value="void execute(Runnable command)" style="text;align=left;verticalAlign=top;spacingLeft=4;spacingRight=4;overflow=hidden;rotatable=0;points=[[0,0.5],[1,0.5]];portConstraint=eastwest;" vertex="1" parent="x2fH94pWOBNQvb6aWbhc-62">
          <mxGeometry y="86" width="210" height="26" as="geometry" />
        </mxCell>
        <mxCell id="x2fH94pWOBNQvb6aWbhc-70" value="" style="endArrow=block;dashed=1;endFill=0;endSize=12;html=1;rounded=0;" edge="1" parent="WIyWlLk6GJQsqaUBKTNV-1" source="x2fH94pWOBNQvb6aWbhc-62" target="6flao9yT7i9pOQDsOtm--19">
          <mxGeometry width="160" relative="1" as="geometry">
            <mxPoint x="-125" y="420" as="sourcePoint" />
            <mxPoint x="-141" y="114" as="targetPoint" />
          </mxGeometry>
        </mxCell>
        <mxCell id="x2fH94pWOBNQvb6aWbhc-71" value="Extends" style="endArrow=block;endSize=16;endFill=0;html=1;rounded=0;" edge="1" parent="WIyWlLk6GJQsqaUBKTNV-1" source="x2fH94pWOBNQvb6aWbhc-54" target="x2fH94pWOBNQvb6aWbhc-62">
          <mxGeometry x="-0.0014" y="10" width="160" relative="1" as="geometry">
            <mxPoint x="-423" y="310" as="sourcePoint" />
            <mxPoint x="-427" y="240" as="targetPoint" />
            <Array as="points" />
            <mxPoint as="offset" />
          </mxGeometry>
        </mxCell>
        <mxCell id="x2fH94pWOBNQvb6aWbhc-72" value="Extends" style="endArrow=block;endSize=16;endFill=0;html=1;rounded=0;" edge="1" parent="WIyWlLk6GJQsqaUBKTNV-1" source="x2fH94pWOBNQvb6aWbhc-49" target="x2fH94pWOBNQvb6aWbhc-54">
          <mxGeometry x="-0.0014" y="10" width="160" relative="1" as="geometry">
            <mxPoint x="75" y="230" as="sourcePoint" />
            <mxPoint x="75" y="170" as="targetPoint" />
            <Array as="points" />
            <mxPoint as="offset" />
          </mxGeometry>
        </mxCell>
        <mxCell id="x2fH94pWOBNQvb6aWbhc-73" value="" style="endArrow=block;dashed=1;endFill=0;endSize=12;html=1;rounded=0;" edge="1" parent="WIyWlLk6GJQsqaUBKTNV-1" source="x2fH94pWOBNQvb6aWbhc-49" target="6flao9yT7i9pOQDsOtm--16">
          <mxGeometry width="160" relative="1" as="geometry">
            <mxPoint x="450" y="670" as="sourcePoint" />
            <mxPoint x="450" y="246" as="targetPoint" />
          </mxGeometry>
        </mxCell>
        <mxCell id="x2fH94pWOBNQvb6aWbhc-74" value="NioEventLoopGroup" style="swimlane;fontStyle=0;align=center;verticalAlign=top;childLayout=stackLayout;horizontal=1;startSize=26;horizontalStack=0;resizeParent=1;resizeLast=0;collapsible=1;marginBottom=0;rounded=0;shadow=0;strokeWidth=1;" vertex="1" parent="WIyWlLk6GJQsqaUBKTNV-1">
          <mxGeometry x="580" y="550" width="390" height="92" as="geometry">
            <mxRectangle x="130" y="380" width="160" height="26" as="alternateBounds" />
          </mxGeometry>
        </mxCell>
        <mxCell id="x2fH94pWOBNQvb6aWbhc-75" value="" style="line;html=1;strokeWidth=1;align=left;verticalAlign=middle;spacingTop=-1;spacingLeft=3;spacingRight=3;rotatable=0;labelPosition=right;points=[];portConstraint=eastwest;" vertex="1" parent="x2fH94pWOBNQvb6aWbhc-74">
          <mxGeometry y="26" width="390" height="8" as="geometry" />
        </mxCell>
        <mxCell id="x2fH94pWOBNQvb6aWbhc-76" value="&lt;font style=&quot;font-size: 11px;&quot;&gt;EventExecutor newChild(ThreadFactory threadFactory, Object... args)&lt;/font&gt;" style="text;strokeColor=none;fillColor=none;align=left;verticalAlign=top;spacingLeft=4;spacingRight=4;overflow=hidden;rotatable=0;points=[[0,0.5],[1,0.5]];portConstraint=eastwest;whiteSpace=wrap;html=1;fontFamily=Helvetica;fontSize=11;" vertex="1" parent="x2fH94pWOBNQvb6aWbhc-74">
          <mxGeometry y="34" width="390" height="26" as="geometry" />
        </mxCell>
        <mxCell id="x2fH94pWOBNQvb6aWbhc-77" value="&lt;div style=&quot;&quot;&gt;void rebuildSelectors()&lt;br&gt;&lt;/div&gt;" style="text;strokeColor=none;fillColor=none;align=left;verticalAlign=top;spacingLeft=4;spacingRight=4;overflow=hidden;rotatable=0;points=[[0,0.5],[1,0.5]];portConstraint=eastwest;whiteSpace=wrap;html=1;fontFamily=Helvetica;fontSize=11;" vertex="1" parent="x2fH94pWOBNQvb6aWbhc-74">
          <mxGeometry y="60" width="390" height="26" as="geometry" />
        </mxCell>
        <mxCell id="x2fH94pWOBNQvb6aWbhc-78" value="Extends" style="endArrow=block;endSize=16;endFill=0;html=1;rounded=0;" edge="1" parent="WIyWlLk6GJQsqaUBKTNV-1" source="x2fH94pWOBNQvb6aWbhc-74" target="x2fH94pWOBNQvb6aWbhc-49">
          <mxGeometry x="-0.0014" y="10" width="160" relative="1" as="geometry">
            <mxPoint x="255" y="337" as="sourcePoint" />
            <mxPoint x="180" y="316" as="targetPoint" />
            <Array as="points" />
            <mxPoint as="offset" />
          </mxGeometry>
        </mxCell>
        <mxCell id="x2fH94pWOBNQvb6aWbhc-79" value="Use" style="endArrow=open;endSize=12;dashed=1;html=1;rounded=0;" edge="1" parent="WIyWlLk6GJQsqaUBKTNV-1" source="x2fH94pWOBNQvb6aWbhc-74" target="6flao9yT7i9pOQDsOtm--0">
          <mxGeometry width="160" relative="1" as="geometry">
            <mxPoint x="860" y="490" as="sourcePoint" />
            <mxPoint x="920" y="490" as="targetPoint" />
          </mxGeometry>
        </mxCell>
        <mxCell id="x2fH94pWOBNQvb6aWbhc-80" value="AbstractBootstrap" style="swimlane;fontStyle=0;align=center;verticalAlign=top;childLayout=stackLayout;horizontal=1;startSize=26;horizontalStack=0;resizeParent=1;resizeLast=0;collapsible=1;marginBottom=0;rounded=0;shadow=0;strokeWidth=1;" vertex="1" parent="WIyWlLk6GJQsqaUBKTNV-1">
          <mxGeometry x="660" y="-820" width="300" height="294" as="geometry">
            <mxRectangle x="130" y="380" width="160" height="26" as="alternateBounds" />
          </mxGeometry>
        </mxCell>
        <mxCell id="x2fH94pWOBNQvb6aWbhc-81" value="EventLoopGroup group" style="text;strokeColor=none;fillColor=none;align=left;verticalAlign=top;spacingLeft=4;spacingRight=4;overflow=hidden;rotatable=0;points=[[0,0.5],[1,0.5]];portConstraint=eastwest;whiteSpace=wrap;html=1;rotation=0;" vertex="1" parent="x2fH94pWOBNQvb6aWbhc-80">
          <mxGeometry y="26" width="300" height="26" as="geometry" />
        </mxCell>
        <mxCell id="x2fH94pWOBNQvb6aWbhc-82" value="ChannelFactory&amp;lt;? extends C&amp;gt; channelFactory" style="text;strokeColor=none;fillColor=none;align=left;verticalAlign=top;spacingLeft=4;spacingRight=4;overflow=hidden;rotatable=0;points=[[0,0.5],[1,0.5]];portConstraint=eastwest;whiteSpace=wrap;html=1;rotation=0;" vertex="1" parent="x2fH94pWOBNQvb6aWbhc-80">
          <mxGeometry y="52" width="300" height="26" as="geometry" />
        </mxCell>
        <mxCell id="x2fH94pWOBNQvb6aWbhc-83" value="SocketAddress localAddress" style="text;strokeColor=none;fillColor=none;align=left;verticalAlign=top;spacingLeft=4;spacingRight=4;overflow=hidden;rotatable=0;points=[[0,0.5],[1,0.5]];portConstraint=eastwest;whiteSpace=wrap;html=1;rotation=0;" vertex="1" parent="x2fH94pWOBNQvb6aWbhc-80">
          <mxGeometry y="78" width="300" height="26" as="geometry" />
        </mxCell>
        <mxCell id="x2fH94pWOBNQvb6aWbhc-84" value="ChannelHandler handler" style="text;strokeColor=none;fillColor=none;align=left;verticalAlign=top;spacingLeft=4;spacingRight=4;overflow=hidden;rotatable=0;points=[[0,0.5],[1,0.5]];portConstraint=eastwest;whiteSpace=wrap;html=1;rotation=0;" vertex="1" parent="x2fH94pWOBNQvb6aWbhc-80">
          <mxGeometry y="104" width="300" height="26" as="geometry" />
        </mxCell>
        <mxCell id="x2fH94pWOBNQvb6aWbhc-88" value="" style="line;html=1;strokeWidth=1;align=left;verticalAlign=middle;spacingTop=-1;spacingLeft=3;spacingRight=3;rotatable=0;labelPosition=right;points=[];portConstraint=eastwest;" vertex="1" parent="x2fH94pWOBNQvb6aWbhc-80">
          <mxGeometry y="130" width="300" height="8" as="geometry" />
        </mxCell>
        <mxCell id="x2fH94pWOBNQvb6aWbhc-89" value="&lt;div style=&quot;&quot;&gt;&lt;div style=&quot;&quot;&gt;group(EventLoopGroup group)&lt;br&gt;&lt;/div&gt;&lt;/div&gt;" style="text;strokeColor=none;fillColor=none;align=left;verticalAlign=top;spacingLeft=4;spacingRight=4;overflow=hidden;rotatable=0;points=[[0,0.5],[1,0.5]];portConstraint=eastwest;whiteSpace=wrap;html=1;fontFamily=Helvetica;fontSize=11;" vertex="1" parent="x2fH94pWOBNQvb6aWbhc-80">
          <mxGeometry y="138" width="300" height="26" as="geometry" />
        </mxCell>
        <mxCell id="x2fH94pWOBNQvb6aWbhc-90" value="&lt;font style=&quot;font-size: 11px;&quot;&gt;channel(Class&amp;lt;? extends C&amp;gt; channelClass)&lt;/font&gt;" style="text;strokeColor=none;fillColor=none;align=left;verticalAlign=top;spacingLeft=4;spacingRight=4;overflow=hidden;rotatable=0;points=[[0,0.5],[1,0.5]];portConstraint=eastwest;whiteSpace=wrap;html=1;fontFamily=Helvetica;fontSize=11;" vertex="1" parent="x2fH94pWOBNQvb6aWbhc-80">
          <mxGeometry y="164" width="300" height="26" as="geometry" />
        </mxCell>
        <mxCell id="x2fH94pWOBNQvb6aWbhc-91" value="&lt;div style=&quot;&quot;&gt;ChannelFuture bind(String inetHost, int inetPort)&lt;br&gt;&lt;/div&gt;" style="text;strokeColor=none;fillColor=none;align=left;verticalAlign=top;spacingLeft=4;spacingRight=4;overflow=hidden;rotatable=0;points=[[0,0.5],[1,0.5]];portConstraint=eastwest;whiteSpace=wrap;html=1;fontFamily=Helvetica;fontSize=11;" vertex="1" parent="x2fH94pWOBNQvb6aWbhc-80">
          <mxGeometry y="190" width="300" height="26" as="geometry" />
        </mxCell>
        <mxCell id="x2fH94pWOBNQvb6aWbhc-92" value="&lt;div style=&quot;&quot;&gt;ChannelFuture register()&lt;br&gt;&lt;/div&gt;" style="text;strokeColor=none;fillColor=none;align=left;verticalAlign=top;spacingLeft=4;spacingRight=4;overflow=hidden;rotatable=0;points=[[0,0.5],[1,0.5]];portConstraint=eastwest;whiteSpace=wrap;html=1;fontFamily=Helvetica;fontSize=11;" vertex="1" parent="x2fH94pWOBNQvb6aWbhc-80">
          <mxGeometry y="216" width="300" height="26" as="geometry" />
        </mxCell>
        <mxCell id="x2fH94pWOBNQvb6aWbhc-93" value="&lt;div style=&quot;&quot;&gt;handler(ChannelHandler handler)&lt;br&gt;&lt;/div&gt;" style="text;strokeColor=none;fillColor=none;align=left;verticalAlign=top;spacingLeft=4;spacingRight=4;overflow=hidden;rotatable=0;points=[[0,0.5],[1,0.5]];portConstraint=eastwest;whiteSpace=wrap;html=1;fontFamily=Helvetica;fontSize=11;" vertex="1" parent="x2fH94pWOBNQvb6aWbhc-80">
          <mxGeometry y="242" width="300" height="26" as="geometry" />
        </mxCell>
        <mxCell id="x2fH94pWOBNQvb6aWbhc-94" value="ServerBootstrap" style="swimlane;fontStyle=0;align=center;verticalAlign=top;childLayout=stackLayout;horizontal=1;startSize=26;horizontalStack=0;resizeParent=1;resizeLast=0;collapsible=1;marginBottom=0;rounded=0;shadow=0;strokeWidth=1;" vertex="1" parent="WIyWlLk6GJQsqaUBKTNV-1">
          <mxGeometry x="810" y="-460" width="460" height="224" as="geometry">
            <mxRectangle x="130" y="380" width="160" height="26" as="alternateBounds" />
          </mxGeometry>
        </mxCell>
        <mxCell id="x2fH94pWOBNQvb6aWbhc-95" value="EventLoopGroup childGroup" style="text;strokeColor=none;fillColor=none;align=left;verticalAlign=top;spacingLeft=4;spacingRight=4;overflow=hidden;rotatable=0;points=[[0,0.5],[1,0.5]];portConstraint=eastwest;whiteSpace=wrap;html=1;rotation=0;" vertex="1" parent="x2fH94pWOBNQvb6aWbhc-94">
          <mxGeometry y="26" width="460" height="26" as="geometry" />
        </mxCell>
        <mxCell id="x2fH94pWOBNQvb6aWbhc-96" value="ChannelHandler childHandler" style="text;strokeColor=none;fillColor=none;align=left;verticalAlign=top;spacingLeft=4;spacingRight=4;overflow=hidden;rotatable=0;points=[[0,0.5],[1,0.5]];portConstraint=eastwest;whiteSpace=wrap;html=1;rotation=0;" vertex="1" parent="x2fH94pWOBNQvb6aWbhc-94">
          <mxGeometry y="52" width="460" height="26" as="geometry" />
        </mxCell>
        <mxCell id="x2fH94pWOBNQvb6aWbhc-97" value="SocketAddress localAddress" style="text;strokeColor=none;fillColor=none;align=left;verticalAlign=top;spacingLeft=4;spacingRight=4;overflow=hidden;rotatable=0;points=[[0,0.5],[1,0.5]];portConstraint=eastwest;whiteSpace=wrap;html=1;rotation=0;" vertex="1" parent="x2fH94pWOBNQvb6aWbhc-94">
          <mxGeometry y="78" width="460" height="26" as="geometry" />
        </mxCell>
        <mxCell id="x2fH94pWOBNQvb6aWbhc-98" value="ChannelHandler handler" style="text;strokeColor=none;fillColor=none;align=left;verticalAlign=top;spacingLeft=4;spacingRight=4;overflow=hidden;rotatable=0;points=[[0,0.5],[1,0.5]];portConstraint=eastwest;whiteSpace=wrap;html=1;rotation=0;" vertex="1" parent="x2fH94pWOBNQvb6aWbhc-94">
          <mxGeometry y="104" width="460" height="26" as="geometry" />
        </mxCell>
        <mxCell id="x2fH94pWOBNQvb6aWbhc-99" value="" style="line;html=1;strokeWidth=1;align=left;verticalAlign=middle;spacingTop=-1;spacingLeft=3;spacingRight=3;rotatable=0;labelPosition=right;points=[];portConstraint=eastwest;" vertex="1" parent="x2fH94pWOBNQvb6aWbhc-94">
          <mxGeometry y="130" width="460" height="8" as="geometry" />
        </mxCell>
        <mxCell id="x2fH94pWOBNQvb6aWbhc-100" value="&lt;div style=&quot;&quot;&gt;&lt;div style=&quot;&quot;&gt;group(EventLoopGroup parentGroup, EventLoopGroup childGroup)&lt;br&gt;&lt;/div&gt;&lt;/div&gt;" style="text;strokeColor=none;fillColor=none;align=left;verticalAlign=top;spacingLeft=4;spacingRight=4;overflow=hidden;rotatable=0;points=[[0,0.5],[1,0.5]];portConstraint=eastwest;whiteSpace=wrap;html=1;fontFamily=Helvetica;fontSize=11;" vertex="1" parent="x2fH94pWOBNQvb6aWbhc-94">
          <mxGeometry y="138" width="460" height="26" as="geometry" />
        </mxCell>
        <mxCell id="x2fH94pWOBNQvb6aWbhc-101" value="&lt;font style=&quot;font-size: 11px;&quot;&gt;EventLoopGroup childGroup()&lt;/font&gt;" style="text;strokeColor=none;fillColor=none;align=left;verticalAlign=top;spacingLeft=4;spacingRight=4;overflow=hidden;rotatable=0;points=[[0,0.5],[1,0.5]];portConstraint=eastwest;whiteSpace=wrap;html=1;fontFamily=Helvetica;fontSize=11;" vertex="1" parent="x2fH94pWOBNQvb6aWbhc-94">
          <mxGeometry y="164" width="460" height="26" as="geometry" />
        </mxCell>
        <mxCell id="x2fH94pWOBNQvb6aWbhc-102" value="&lt;div style=&quot;&quot;&gt;ServerBootstrap childHandler(ChannelHandler childHandler)&lt;br&gt;&lt;/div&gt;" style="text;strokeColor=none;fillColor=none;align=left;verticalAlign=top;spacingLeft=4;spacingRight=4;overflow=hidden;rotatable=0;points=[[0,0.5],[1,0.5]];portConstraint=eastwest;whiteSpace=wrap;html=1;fontFamily=Helvetica;fontSize=11;" vertex="1" parent="x2fH94pWOBNQvb6aWbhc-94">
          <mxGeometry y="190" width="460" height="26" as="geometry" />
        </mxCell>
        <mxCell id="x2fH94pWOBNQvb6aWbhc-105" value="Extends" style="endArrow=block;endSize=16;endFill=0;html=1;rounded=0;" edge="1" parent="WIyWlLk6GJQsqaUBKTNV-1" source="x2fH94pWOBNQvb6aWbhc-94" target="x2fH94pWOBNQvb6aWbhc-80">
          <mxGeometry x="0.0114" y="10" width="160" relative="1" as="geometry">
            <mxPoint x="471" y="180" as="sourcePoint" />
            <mxPoint x="350" y="62" as="targetPoint" />
            <Array as="points" />
            <mxPoint as="offset" />
          </mxGeometry>
        </mxCell>
        <mxCell id="x2fH94pWOBNQvb6aWbhc-106" value="Bootstrap" style="swimlane;fontStyle=0;align=center;verticalAlign=top;childLayout=stackLayout;horizontal=1;startSize=26;horizontalStack=0;resizeParent=1;resizeLast=0;collapsible=1;marginBottom=0;rounded=0;shadow=0;strokeWidth=1;" vertex="1" parent="WIyWlLk6GJQsqaUBKTNV-1">
          <mxGeometry x="445" y="-400" width="330" height="112" as="geometry">
            <mxRectangle x="130" y="380" width="160" height="26" as="alternateBounds" />
          </mxGeometry>
        </mxCell>
        <mxCell id="x2fH94pWOBNQvb6aWbhc-107" value="SocketAddress remoteAddress" style="text;strokeColor=none;fillColor=none;align=left;verticalAlign=top;spacingLeft=4;spacingRight=4;overflow=hidden;rotatable=0;points=[[0,0.5],[1,0.5]];portConstraint=eastwest;whiteSpace=wrap;html=1;rotation=0;" vertex="1" parent="x2fH94pWOBNQvb6aWbhc-106">
          <mxGeometry y="26" width="330" height="26" as="geometry" />
        </mxCell>
        <mxCell id="x2fH94pWOBNQvb6aWbhc-111" value="" style="line;html=1;strokeWidth=1;align=left;verticalAlign=middle;spacingTop=-1;spacingLeft=3;spacingRight=3;rotatable=0;labelPosition=right;points=[];portConstraint=eastwest;" vertex="1" parent="x2fH94pWOBNQvb6aWbhc-106">
          <mxGeometry y="52" width="330" height="8" as="geometry" />
        </mxCell>
        <mxCell id="x2fH94pWOBNQvb6aWbhc-112" value="&lt;div style=&quot;&quot;&gt;&lt;div style=&quot;&quot;&gt;ChannelFuture connect()&lt;br&gt;&lt;/div&gt;&lt;/div&gt;" style="text;strokeColor=none;fillColor=none;align=left;verticalAlign=top;spacingLeft=4;spacingRight=4;overflow=hidden;rotatable=0;points=[[0,0.5],[1,0.5]];portConstraint=eastwest;whiteSpace=wrap;html=1;fontFamily=Helvetica;fontSize=11;" vertex="1" parent="x2fH94pWOBNQvb6aWbhc-106">
          <mxGeometry y="60" width="330" height="26" as="geometry" />
        </mxCell>
        <mxCell id="x2fH94pWOBNQvb6aWbhc-113" value="&lt;font style=&quot;font-size: 11px;&quot;&gt;Bootstrap remoteAddress(InetAddress inetHost, int inetPort)&lt;/font&gt;" style="text;strokeColor=none;fillColor=none;align=left;verticalAlign=top;spacingLeft=4;spacingRight=4;overflow=hidden;rotatable=0;points=[[0,0.5],[1,0.5]];portConstraint=eastwest;whiteSpace=wrap;html=1;fontFamily=Helvetica;fontSize=11;" vertex="1" parent="x2fH94pWOBNQvb6aWbhc-106">
          <mxGeometry y="86" width="330" height="26" as="geometry" />
        </mxCell>
        <mxCell id="x2fH94pWOBNQvb6aWbhc-117" value="Extends" style="endArrow=block;endSize=16;endFill=0;html=1;rounded=0;" edge="1" parent="WIyWlLk6GJQsqaUBKTNV-1" source="x2fH94pWOBNQvb6aWbhc-106" target="x2fH94pWOBNQvb6aWbhc-80">
          <mxGeometry x="0.0114" y="10" width="160" relative="1" as="geometry">
            <mxPoint x="861" y="-470" as="sourcePoint" />
            <mxPoint x="770" y="-524" as="targetPoint" />
            <Array as="points" />
            <mxPoint as="offset" />
          </mxGeometry>
        </mxCell>
        <mxCell id="x2fH94pWOBNQvb6aWbhc-120" value="netty.bootstrap (transport)" style="shape=umlFrame;whiteSpace=wrap;html=1;pointerEvents=0;width=180;height=30;" vertex="1" parent="WIyWlLk6GJQsqaUBKTNV-1">
          <mxGeometry x="420" y="-830" width="930" height="610" as="geometry" />
        </mxCell>
        <mxCell id="x2fH94pWOBNQvb6aWbhc-121" value="" style="endArrow=none;html=1;edgeStyle=orthogonalEdgeStyle;rounded=0;exitX=1.006;exitY=0.343;exitDx=0;exitDy=0;exitPerimeter=0;" edge="1" parent="WIyWlLk6GJQsqaUBKTNV-1" source="6flao9yT7i9pOQDsOtm--16" target="6flao9yT7i9pOQDsOtm--87">
          <mxGeometry relative="1" as="geometry">
            <mxPoint x="450" y="10" as="sourcePoint" />
            <mxPoint x="550" y="10" as="targetPoint" />
          </mxGeometry>
        </mxCell>
        <mxCell id="x2fH94pWOBNQvb6aWbhc-122" value="1" style="edgeLabel;resizable=0;html=1;align=left;verticalAlign=bottom;" connectable="0" vertex="1" parent="x2fH94pWOBNQvb6aWbhc-121">
          <mxGeometry x="-1" relative="1" as="geometry">
            <mxPoint x="10" as="offset" />
          </mxGeometry>
        </mxCell>
        <mxCell id="x2fH94pWOBNQvb6aWbhc-123" value="*" style="edgeLabel;resizable=0;html=1;align=right;verticalAlign=bottom;" connectable="0" vertex="1" parent="x2fH94pWOBNQvb6aWbhc-121">
          <mxGeometry x="1" relative="1" as="geometry">
            <mxPoint x="-10" as="offset" />
          </mxGeometry>
        </mxCell>
      </root>
    </mxGraphModel>
  </diagram>
</mxfile>
